<?xml version="1.0" encoding="utf-8"?>
<!-- Generator: Adobe Illustrator 24.0.2, SVG Export Plug-In . SVG Version: 6.00 Build 0)  -->
<svg version="1.1" id="圖層_1" xmlns="http://www.w3.org/2000/svg" xmlns:xlink="http://www.w3.org/1999/xlink" x="0px" y="0px"
	 viewBox="0 0 110 110" style="enable-background:new 0 0 110 110;" xml:space="preserve">
<style type="text/css">
	.st0{fill:#F8A88B;}
	.st1{fill:#FFF0C3;}
	.st2{fill:#96D1F2;}
	.st3{fill:#58B6E7;}
	.st4{fill:#70004B;}
</style>
<g>
	<g>
		<rect x="48.41" y="78.98" class="st0" width="30.08" height="7.91"/>
	</g>
	<path class="st1" d="M85.95,43.31V24.45c0-1.71-1.39-3.1-3.1-3.1h-2.37c-1.71,0-3.1,1.39-3.1,3.1v18.86h-0.54V15.74
		c0-2.39-1.94-4.33-4.33-4.33h-2.8c-2.39,0-4.33,1.94-4.33,4.33v27.57h-0.76V10.23c0-2.39-1.94-4.33-4.33-4.33h-2.8
		c-2.39,0-4.33,1.94-4.33,4.33v33.08h-0.76V13.98c0-2.39-1.94-4.33-4.33-4.33h-2.8c-2.39,0-4.33,1.94-4.33,4.33v29.33h0v9.75
		l-1.77-1.77c-3.43-3.43-9-3.43-12.44,0l-1.51,1.51c-1.29,1.29-1.29,3.38,0,4.67l20.34,20.34c0.96,0.96,2.07,1.7,3.25,2.21
		c1.94,0.98,4.12,1.53,6.44,1.53h16.39c7.9,0,14.31-6.41,14.31-14.31L85.95,43.31L85.95,43.31z"/>
	<g>
		<rect x="45.34" y="86.89" class="st2" width="36.21" height="16.84"/>
	</g>
	<g>
		<rect x="75.43" y="86.89" class="st3" width="6.12" height="16.84"/>
	</g>
	<g>
		<path class="st0" d="M40.94,53.06l-1.77-1.77c-2.82-2.82-7.08-3.32-10.41-1.51c1.88,0.23,3.7,1.06,5.15,2.5l7.04,7.04V53.06z"/>
	</g>
	<g>
		<path class="st0" d="M85.95,43.31V24.45c0-1.71-1.39-3.1-3.1-3.1h-2.37c-0.23,0-0.46,0.03-0.68,0.08
			c1.39,0.31,2.43,1.55,2.43,3.03v18.86h0v23.94c0,7.9-6.41,14.31-14.31,14.31h3.73c7.9,0,14.31-6.41,14.31-14.31L85.95,43.31
			L85.95,43.31z"/>
	</g>
	<path class="st4" d="M87.04,67.25l0-42.8c0-2.31-1.88-4.19-4.19-4.19h-2.37c-0.96,0-1.85,0.33-2.56,0.88v-5.4
		c0-2.98-2.43-5.41-5.41-5.41h-2.8c-1.59,0-3.01,0.69-4,1.78v-1.88c0-2.98-2.43-5.41-5.41-5.41h-2.8c-2.98,0-5.41,2.43-5.41,5.41
		v0.12c-0.99-1.09-2.42-1.78-4-1.78h-2.8c-2.98,0-5.41,2.43-5.41,5.41l0,36.46c-1.86-1.82-4.3-2.81-6.91-2.81
		c-2.64,0-5.12,1.03-6.99,2.89l-1.51,1.51c-1.71,1.71-1.71,4.49,0,6.2l20.34,20.34c0.75,0.75,1.6,1.39,2.53,1.91v5.31h-1.98
		c-0.6,0-1.08,0.49-1.08,1.08v16.84c0,0.6,0.49,1.08,1.08,1.08h36.21c0.6,0,1.08-0.49,1.08-1.08V86.89c0-0.6-0.49-1.08-1.08-1.08
		h-1.98v-5.36C84.19,77.67,87.04,72.67,87.04,67.25z M80.47,102.65H46.43V87.98h34.04V102.65z M49.49,85.81v-5.97
		c0-0.42-0.24-0.79-0.61-0.98c-0.95-0.46-1.81-1.07-2.55-1.81L25.98,56.71c-0.87-0.87-0.87-2.27,0-3.14l1.51-1.51
		c1.46-1.46,3.39-2.26,5.45-2.26c2.06,0,4,0.8,5.45,2.26l1.45,1.45v6.76c0,0.6,0.49,1.08,1.08,1.08c0.6,0,1.08-0.49,1.08-1.08v-7.21
		l0-39.08c0-1.79,1.45-3.24,3.24-3.24h2.8c1.79,0,3.24,1.45,3.24,3.24v29.33c0,0.6,0.49,1.08,1.08,1.08h0.76
		c0.6,0,1.08-0.49,1.08-1.08V10.23c0-1.79,1.45-3.24,3.24-3.24h2.8c1.79,0,3.24,1.45,3.24,3.24v33.08c0,0.6,0.49,1.08,1.08,1.08
		h0.76c0.6,0,1.08-0.49,1.08-1.08V15.74c0-1.79,1.45-3.24,3.24-3.24h2.8c1.79,0,3.24,1.45,3.24,3.24v27.57
		c0,0.6,0.49,1.08,1.08,1.08h0.54c0.6,0,1.08-0.49,1.08-1.08V24.45c0-1.11,0.91-2.02,2.02-2.02h2.37c1.11,0,2.02,0.91,2.02,2.02
		l0,42.8c0,4.84-2.64,9.3-6.9,11.62c-0.35,0.19-0.56,0.55-0.56,0.95v5.99H49.49z"/>
</g>
</svg>
