<?xml version="1.0" encoding="utf-8"?>
<!-- Generator: Adobe Illustrator 24.0.2, SVG Export Plug-In . SVG Version: 6.00 Build 0)  -->
<svg version="1.1" id="圖層_1" xmlns="http://www.w3.org/2000/svg" xmlns:xlink="http://www.w3.org/1999/xlink" x="0px" y="0px"
	 viewBox="0 0 130 130" style="enable-background:new 0 0 130 130;" xml:space="preserve">
<style type="text/css">
	.st0{fill:#212223;}
	.st1{fill:#393C3E;}
	.st2{fill:#232526;}
	.st3{fill:#BC0024;}
	.st4{fill:#DD0021;}
	.st5{fill:#231F20;}
	.st6{fill:#FFFFFF;}
	.st7{fill:#F1F2F2;}
	.st8{fill:#E6E7E8;}
	.st9{fill:#B5DDE8;}
	.st10{fill:#D5EEF7;}
	.st11{fill:#92C5D3;}
	.st12{fill:#F2FAFC;}
	.st13{fill:#563B24;}
	.st14{fill:#6B4A32;}
	.st15{fill:#AA7B50;}
	.st16{fill:#B8926C;}
	.st17{fill:#1D1D1B;}
	.st18{fill:#BCBEC0;}
</style>
<g>
	<path class="st0" d="M60.13,58.86l-1.93-3.64l-0.96-1.82c-0.32-0.61-0.66-1.21-0.99-1.81l-3.97-7.26l-0.03-0.05
		c-0.06-0.1-0.13-0.19-0.22-0.27c-0.39-0.31-0.95-0.25-1.26,0.14v0c-0.17,0.22-0.33,0.44-0.49,0.66l-0.37,0.62
		c-0.25,0.41-0.43,0.81-0.65,1.22c-0.41,0.81-0.8,1.62-1.18,2.42c-0.77,1.61-1.51,3.22-2.29,4.82c-0.38,0.8-0.78,1.59-1.17,2.39
		c-0.39,0.79-0.81,1.57-1.21,2.36c-0.42,0.78-0.84,1.56-1.27,2.33c-0.45,0.76-0.87,1.54-1.34,2.28l-0.69,1.12
		c-0.24,0.37-0.49,0.73-0.73,1.1c-0.48,0.74-1.01,1.44-1.54,2.15c-0.25,0.36-0.54,0.69-0.82,1.03l-0.42,0.51l-0.21,0.25l-0.11,0.13
		l-0.01,0.01l-0.03,0.03l-0.06,0.06l-0.47,0.47c-0.16,0.15-0.32,0.26-0.48,0.39c-0.15,0.13-0.33,0.25-0.51,0.37
		c-0.18,0.12-0.35,0.24-0.54,0.35c-0.75,0.43-1.55,0.78-2.36,1.09c-0.82,0.29-1.66,0.55-2.52,0.75c-1.72,0.4-3.47,0.65-5.24,0.79
		c-0.1,0.01-0.18,0.09-0.18,0.2c0,0.1,0.09,0.18,0.2,0.18c1.79-0.07,3.57-0.26,5.34-0.61c0.88-0.17,1.75-0.4,2.62-0.67
		c0.86-0.29,1.71-0.62,2.52-1.06c0.21-0.1,0.4-0.23,0.6-0.35c0.2-0.12,0.39-0.24,0.58-0.39c0.19-0.14,0.39-0.28,0.57-0.43l0.49-0.45
		l0.06-0.06l0.03-0.03l0.03-0.03l0.01-0.02l0.11-0.12l0.22-0.25l0.45-0.5c0.3-0.34,0.61-0.66,0.88-1.02c0.56-0.7,1.13-1.4,1.65-2.14
		c0.26-0.36,0.53-0.72,0.79-1.09l0.75-1.12c0.51-0.74,0.96-1.51,1.45-2.27c0.47-0.76,0.92-1.54,1.37-2.31
		c0.43-0.78,0.88-1.56,1.31-2.34c0.43-0.78,0.85-1.57,1.27-2.36c0.84-1.58,1.64-3.17,2.46-4.74c0.41-0.79,0.82-1.57,1.24-2.33
		c0.17-0.29,0.34-0.61,0.51-0.9l3.22,5.89c0.33,0.6,0.66,1.19,0.98,1.8l0.96,1.82l1.92,3.64c0.24,0.46,0.82,0.64,1.28,0.39
		C60.19,59.89,60.37,59.32,60.13,58.86z"/>
	<path class="st1" d="M60.13,58.86l-1.93-3.64l-0.96-1.82c-0.32-0.61-0.66-1.21-0.99-1.81l-3.97-7.26l-0.03-0.05
		c-0.06-0.1-0.13-0.19-0.22-0.27c-0.39-0.31-0.95-0.25-1.26,0.14v0c-0.17,0.22-0.33,0.44-0.49,0.66l-0.37,0.62
		c-0.25,0.41-0.43,0.81-0.65,1.22c-0.41,0.81-0.8,1.62-1.18,2.42c-0.77,1.61-1.51,3.22-2.29,4.82c-0.38,0.8-0.78,1.59-1.17,2.39
		c-0.39,0.79-0.81,1.57-1.21,2.36c-0.42,0.78-0.84,1.56-1.27,2.33c-0.45,0.76-0.87,1.54-1.34,2.28l-0.69,1.12
		c-0.24,0.37-0.49,0.73-0.73,1.1c-0.48,0.74-1.01,1.44-1.54,2.15c-0.25,0.36-0.54,0.69-0.82,1.03l-0.42,0.51l-0.21,0.25l-0.11,0.13
		l-0.01,0.01l-0.03,0.03l-0.06,0.06l-0.47,0.47c-0.16,0.15-0.32,0.26-0.48,0.39c-0.15,0.13-0.33,0.25-0.51,0.37
		c-0.18,0.12-0.35,0.24-0.54,0.35c-0.75,0.43-1.55,0.78-2.36,1.09c-0.82,0.29-1.66,0.55-2.52,0.75c-1.72,0.4-3.47,0.65-5.24,0.79
		c-0.1,0.01-0.18,0.09-0.18,0.2c0,0.1,0.04,0,0.15-0.01c1.79-0.07,3.57-0.26,5.34-0.61c0.88-0.17,1.75-0.41,2.62-0.67
		c0.86-0.29,1.71-0.62,2.52-1.05c0.21-0.1,0.39-0.23,0.6-0.35c0.2-0.12,0.39-0.24,0.58-0.39c0.19-0.14,0.39-0.28,0.57-0.43
		c0,0,2.77-3.12,3.76-4.74c0.24-0.38,10.04-17.32,10.46-18.09c0.17-0.29,0.73-1.5,0.91-1.79l3.23,6.59c0.33,0.6,0.66,1.19,0.98,1.8
		l0.96,1.82l1.92,3.64c0.24,0.46,0.82,0.64,1.28,0.39C60.19,59.89,60.37,59.32,60.13,58.86z"/>
	<g>
		<path class="st2" d="M54.06,65.77c0.01-0.01,0.02-0.02,0.03-0.03c0.36-0.38,0.35-0.98-0.03-1.34c-0.38-0.36-0.98-0.35-1.34,0.03
			c0,0-2,2.09-4.99,5.22c-1.5,1.56-3.25,3.38-5.17,5.28c-0.96,0.95-1.96,1.92-3.01,2.85c-0.52,0.45-1.07,0.93-1.61,1.27
			c-0.6,0.34-1.24,0.66-1.88,0.99c-2.58,1.27-5.22,2.45-7.7,3.51c-1.24,0.53-2.45,1.03-3.61,1.47c-0.58,0.22-1.14,0.43-1.69,0.6
			c-0.27,0.09-0.55,0.17-0.78,0.21c-0.27,0.04-0.53,0.07-0.79,0.08c-1.05,0.04-2.02-0.15-2.86-0.35c-0.85-0.21-1.57-0.45-2.17-0.65
			c-0.6-0.21-1.06-0.38-1.37-0.5c-0.32-0.12-0.48-0.19-0.48-0.19c-0.05-0.02-0.1,0-0.12,0.05c-0.02,0.04,0,0.1,0.05,0.12
			c0,0,0.17,0.07,0.48,0.21c0.31,0.14,0.77,0.34,1.36,0.57c0.59,0.24,1.31,0.51,2.16,0.77c0.85,0.25,1.84,0.5,2.97,0.51
			c0.29,0,0.57-0.01,0.86-0.04c0.32-0.05,0.59-0.13,0.88-0.21c0.57-0.17,1.14-0.36,1.73-0.57c1.18-0.42,2.41-0.88,3.67-1.38
			c2.53-1,5.2-2.11,7.84-3.33c0.66-0.31,1.32-0.62,1.98-0.97c0.7-0.4,1.25-0.86,1.82-1.31c1.12-0.91,2.17-1.85,3.17-2.77
			c2.01-1.84,3.84-3.59,5.41-5.09C51.98,67.78,54.06,65.77,54.06,65.77z"/>
		<path class="st1" d="M52.57,66.34c0.01-0.01,0.67-0.66,0.68-0.67c0.36-0.38,1.2-0.9,0.82-1.26c-0.38-0.36-0.98-0.35-1.34,0.03
			c0,0-2,2.09-4.99,5.22c-1.5,1.56-3.25,3.38-5.17,5.28c-0.96,0.95-1.96,1.92-3.01,2.85c-0.52,0.45-1.07,0.93-1.61,1.27
			c-0.6,0.34-1.24,0.66-1.88,0.99c-2.58,1.27-5.22,2.45-7.7,3.51c-1.24,0.53-2.45,1.03-3.61,1.47c-0.58,0.22-1.14,0.43-1.69,0.6
			c-0.27,0.09-0.55,0.17-0.78,0.21c-0.27,0.04-0.53,0.07-0.79,0.08c-1.05,0.04-2.02-0.15-2.86-0.35c-0.85-0.21-1.57-0.45-2.17-0.65
			c-0.6-0.21-1.06-0.38-1.37-0.5c-0.32-0.12-0.48-0.19-0.48-0.19c-0.05-0.02-0.1,0-0.12,0.05c-0.02,0.04,0,0.1,0.05,0.12
			c0,0,0.17,0.07,0.48,0.21c0.31,0.14,0.77,0.34,1.36,0.57c0.59,0.24,1.24,0.42,2.09,0.67c0.85,0.25,1.78,0.47,2.91,0.49
			c0.29,0,0.57-0.01,0.86-0.04c0.32-0.05,0.6-0.13,0.88-0.21c0.57-0.17,1.07-0.34,1.66-0.55c1.18-0.42,2.42-0.94,3.69-1.44
			c2.53-1,5.22-2.29,7.86-3.51c0.66-0.31,1.32-0.62,1.98-0.97c0.7-0.4,1.25-0.86,1.82-1.31C41.23,77.4,52.57,66.34,52.57,66.34z"/>
	</g>
	<g>
		<path class="st1" d="M68.78,70.65c31.55,20.23,56.42-14.49,54.06-21.23c-2.01-5.74-40.11-12.5-55.22,13.04
			C65.97,67.64,68.78,70.65,68.78,70.65z"/>
		<path class="st2" d="M123.88,48.05c-3.45-5.62-42.11-10.89-56.91,14.14c-0.51,1.6-0.49,3.14-0.23,4.52
			C84.18,67.37,119.74,55.65,123.88,48.05z"/>
		<path class="st1" d="M97.77,45.33c-11.22,1.57-23.94,5.27-30.8,16.85c-0.51,1.6-0.49,3.14-0.23,4.52
			c12.45,0.48,34.11-5.35,47.01-11.49c0.14-0.6,0.27-1.21,0.35-1.83C114.95,46.94,107.08,44.77,97.77,45.33z"/>
		<path class="st3" d="M66.74,66.7c0.59,3.07,2.42,5.26,2.42,5.26c31.55,20.23,57.25-16.83,54.89-23.57
			c-0.04-0.12-0.1-0.23-0.17-0.35C119.74,55.65,84.18,67.37,66.74,66.7z"/>
		<path class="st4" d="M113.75,55.21c-12.9,6.14-34.57,11.97-47.01,11.49c0.59,3.07,2.42,5.26,2.42,5.26
			c7.68,4.93,15.02,6.45,21.69,5.85C101.74,73.99,111.25,66.14,113.75,55.21z"/>
		<path class="st5" d="M73.65,54.05c0,0,0.23,0.28,0.59,0.81c0.18,0.26,0.39,0.59,0.62,0.96c0.22,0.38,0.49,0.81,0.73,1.29
			c0.26,0.48,0.51,1.02,0.77,1.58c0.26,0.57,0.5,1.18,0.74,1.82c0.21,0.65,0.47,1.31,0.63,2.01c0.09,0.35,0.19,0.7,0.28,1.05
			c0.08,0.35,0.15,0.71,0.22,1.07c0.06,0.36,0.15,0.71,0.19,1.07c0.04,0.36,0.08,0.72,0.12,1.08c0.11,0.71,0.1,1.42,0.14,2.1
			c0.06,0.68-0.02,1.34-0.04,1.96c-0.02,0.31-0.02,0.62-0.06,0.91c-0.04,0.29-0.08,0.57-0.12,0.84c-0.08,0.54-0.13,1.04-0.23,1.47
			c-0.11,0.43-0.2,0.81-0.27,1.11c-0.15,0.62-0.24,0.97-0.24,0.97s0.06-0.36,0.17-0.98c0.06-0.31,0.13-0.69,0.21-1.12
			c0.05-0.21,0.06-0.45,0.08-0.69c0.03-0.25,0.05-0.5,0.08-0.77c0.03-0.27,0.06-0.55,0.09-0.84c0.03-0.29,0.02-0.59,0.03-0.9
			c0-0.62,0.05-1.27-0.01-1.94c-0.05-0.67-0.04-1.37-0.16-2.07c-0.05-0.35-0.09-0.7-0.14-1.06c-0.04-0.36-0.13-0.71-0.2-1.06
			c-0.07-0.35-0.13-0.71-0.21-1.06c-0.09-0.35-0.18-0.69-0.27-1.04c-0.15-0.69-0.4-1.34-0.6-1.99c-0.1-0.32-0.24-0.63-0.34-0.93
			c-0.11-0.3-0.21-0.6-0.34-0.89c-0.24-0.57-0.47-1.11-0.71-1.6c-0.46-0.98-0.9-1.77-1.22-2.32c-0.16-0.27-0.29-0.48-0.38-0.63
			C73.7,54.12,73.65,54.05,73.65,54.05z"/>
		<path class="st5" d="M84.47,47.31c0,0,0.34,0.37,0.87,1.08c0.53,0.71,1.28,1.73,2.07,3.03c0.39,0.65,0.81,1.36,1.22,2.13
			c0.42,0.77,0.82,1.59,1.21,2.46c0.38,0.87,0.76,1.78,1.09,2.72c0.35,0.93,0.65,1.91,0.93,2.88c0.13,0.49,0.24,0.99,0.37,1.47
			c0.1,0.5,0.21,0.99,0.3,1.48c0.18,0.98,0.32,1.96,0.41,2.9c0.1,0.95,0.13,1.87,0.14,2.74c0,0.43-0.01,0.86-0.01,1.27
			c-0.02,0.41-0.04,0.8-0.06,1.18c-0.05,0.76-0.14,1.45-0.21,2.06c-0.1,0.61-0.18,1.14-0.27,1.57c-0.19,0.87-0.3,1.36-0.3,1.36
			s0.08-0.5,0.22-1.37c0.07-0.44,0.12-0.97,0.2-1.58c0.04-0.31,0.05-0.63,0.08-0.98c0.02-0.34,0.06-0.7,0.06-1.08
			c0.01-0.38,0.02-0.77,0.04-1.18c-0.01-0.41-0.02-0.83-0.02-1.26c-0.03-0.86-0.1-1.78-0.2-2.71c-0.1-0.94-0.24-1.9-0.43-2.87
			c-0.09-0.48-0.21-0.97-0.31-1.46c-0.13-0.48-0.24-0.97-0.38-1.46c-0.27-0.97-0.55-1.93-0.89-2.86c-0.33-0.93-0.69-1.84-1.06-2.71
			c-0.39-0.86-0.76-1.69-1.15-2.47c-0.39-0.77-0.78-1.49-1.15-2.15c-0.75-1.31-1.44-2.37-1.94-3.1
			C84.79,47.71,84.47,47.31,84.47,47.31z"/>
		<path class="st5" d="M95.86,44.11c0,0,0.08,0.1,0.23,0.28c0.15,0.18,0.37,0.45,0.63,0.8c0.27,0.35,0.57,0.78,0.92,1.29
			s0.72,1.08,1.1,1.74c0.38,0.65,0.78,1.36,1.17,2.13c0.4,0.77,0.79,1.59,1.17,2.45c0.75,1.73,1.44,3.62,1.99,5.55
			c0.26,0.97,0.51,1.95,0.69,2.92c0.19,0.97,0.35,1.93,0.45,2.87c0.12,0.94,0.15,1.85,0.17,2.71c0,0.87-0.02,1.68-0.09,2.44
			c-0.06,0.75-0.17,1.43-0.29,2.03c-0.12,0.6-0.25,1.12-0.39,1.54c-0.12,0.42-0.25,0.74-0.33,0.96c-0.08,0.22-0.13,0.34-0.13,0.34
			s0.04-0.12,0.11-0.34c0.07-0.22,0.18-0.55,0.28-0.98c0.12-0.42,0.22-0.94,0.32-1.54c0.09-0.6,0.18-1.28,0.22-2.03
			c0.06-0.75,0.05-1.56,0.03-2.41c-0.04-0.86-0.11-1.76-0.22-2.68c-0.11-0.93-0.27-1.88-0.47-2.84c-0.19-0.96-0.44-1.93-0.71-2.89
			c-0.53-1.92-1.2-3.81-1.93-5.53c-0.37-0.86-0.73-1.69-1.11-2.46c-0.37-0.77-0.75-1.49-1.11-2.14c-0.73-1.31-1.4-2.37-1.89-3.09
			c-0.24-0.36-0.45-0.64-0.58-0.83C95.94,44.21,95.86,44.11,95.86,44.11z"/>
		<path class="st5" d="M106.64,43.39c0,0,0.25,0.31,0.65,0.88c0.39,0.58,0.96,1.4,1.56,2.44c0.6,1.04,1.27,2.26,1.88,3.64
			c0.3,0.68,0.61,1.4,0.89,2.14c0.28,0.73,0.54,1.49,0.78,2.26c0.22,0.77,0.43,1.54,0.59,2.32c0.08,0.39,0.16,0.77,0.22,1.15
			c0.07,0.38,0.13,0.76,0.17,1.13c0.06,0.37,0.09,0.74,0.12,1.1c0.04,0.36,0.04,0.72,0.06,1.06c0.02,0.34,0.01,0.68,0.01,1
			c0,0.32-0.01,0.64-0.03,0.94c-0.03,0.6-0.11,1.14-0.17,1.63c-0.07,0.48-0.17,0.9-0.23,1.24c-0.18,0.68-0.28,1.06-0.28,1.06
			s0.08-0.39,0.21-1.07c0.05-0.34,0.11-0.76,0.16-1.24c0.04-0.48,0.09-1.03,0.1-1.62c0.02-0.3,0.01-0.6,0-0.93
			c0-0.32-0.01-0.65-0.04-0.99c-0.02-0.34-0.04-0.69-0.09-1.04c-0.04-0.35-0.07-0.72-0.13-1.08c-0.05-0.37-0.11-0.74-0.18-1.11
			c-0.06-0.38-0.15-0.75-0.23-1.13c-0.17-0.76-0.38-1.53-0.61-2.29c-0.23-0.76-0.48-1.51-0.75-2.24c-0.27-0.73-0.56-1.44-0.86-2.13
			c-0.3-0.68-0.6-1.34-0.89-1.95c-0.3-0.62-0.59-1.19-0.87-1.71c-0.57-1.05-1.06-1.91-1.43-2.5
			C106.86,43.72,106.64,43.39,106.64,43.39z"/>
		<path class="st5" d="M114.96,44.24c0,0,0.17,0.18,0.45,0.52c0.28,0.34,0.68,0.84,1.11,1.46c0.43,0.63,0.92,1.36,1.39,2.2
			c0.47,0.83,0.91,1.74,1.29,2.69c0.19,0.47,0.35,0.95,0.5,1.43c0.15,0.48,0.27,0.96,0.37,1.42c0.2,0.93,0.28,1.83,0.29,2.59
			c0,0.19,0,0.37-0.01,0.55c-0.01,0.17-0.03,0.34-0.04,0.49c-0.02,0.31-0.08,0.57-0.1,0.79c-0.09,0.43-0.15,0.68-0.15,0.68
			s0.03-0.25,0.08-0.69c0.01-0.22,0.04-0.48,0.04-0.79c0-0.3,0-0.65-0.03-1.02c-0.03-0.37-0.06-0.78-0.14-1.2
			c-0.06-0.42-0.16-0.87-0.27-1.32c-0.11-0.45-0.25-0.92-0.39-1.39c-0.15-0.47-0.32-0.94-0.51-1.4c-0.18-0.47-0.38-0.93-0.59-1.37
			c-0.21-0.45-0.42-0.88-0.64-1.3c-0.44-0.83-0.87-1.6-1.27-2.24c-0.4-0.64-0.74-1.17-0.99-1.53
			C115.1,44.44,114.96,44.24,114.96,44.24z"/>
		<path class="st6" d="M74.11,60.23c0.95,0.59,1.24,1.84,0.64,2.81c-0.6,0.96-1.85,1.27-2.8,0.68c-0.95-0.59-1.24-1.84-0.64-2.81
			C71.91,59.95,73.16,59.64,74.11,60.23z"/>
		<path class="st6" d="M85.66,56.13c1.35,0.84,1.8,2.58,0.99,3.89c-0.81,1.31-2.56,1.7-3.92,0.86c-1.36-0.84-1.8-2.58-0.99-3.89
			C82.55,55.68,84.31,55.3,85.66,56.13z"/>
		<path class="st6" d="M97.27,53.29c1.3,0.8,1.72,2.48,0.93,3.75c-0.78,1.27-2.47,1.65-3.77,0.84c-1.3-0.8-1.72-2.48-0.93-3.75
			C94.29,52.87,95.97,52.49,97.27,53.29z"/>
		<path class="st6" d="M107.53,50.51c1.07,0.66,1.46,2,0.85,2.97c-0.6,0.98-1.96,1.23-3.04,0.57c-1.08-0.66-1.46-2-0.85-2.98
			C105.09,50.1,106.45,49.84,107.53,50.51z"/>
		<path class="st7" d="M115.5,48.86c0.69,0.43,0.93,1.3,0.54,1.95c-0.4,0.64-1.29,0.82-1.98,0.39c-0.7-0.43-0.94-1.3-0.54-1.95
			C113.92,48.61,114.8,48.44,115.5,48.86z"/>
		<path class="st8" d="M121.08,47.02c0.46,0.29,0.58,0.94,0.25,1.47c-0.32,0.52-0.96,0.72-1.42,0.43c-0.46-0.29-0.57-0.94-0.25-1.46
			C119.98,46.92,120.61,46.73,121.08,47.02z"/>
	</g>
	<g>
		<path class="st9" d="M51.84,56.39C36.3,40.58,28.46,8.37,42.92,3.99c14.47-4.38,19.24,30.5,15.2,52.29
			C53.88,57.27,51.84,56.39,51.84,56.39z"/>
		<path class="st10" d="M51.84,56.39C36.3,40.58,28.41,8.24,42.92,3.99c12.74-3.73,16.04,30.21,12,52
			C50.68,56.98,51.84,56.39,51.84,56.39z"/>
		<path class="st11" d="M43.24,8.27c-0.08,0.18-0.17,0.41-0.29,0.67c-0.11,0.27-0.21,0.58-0.33,0.93c-0.06,0.17-0.12,0.36-0.19,0.55
			c-0.05,0.2-0.11,0.4-0.17,0.62c-0.12,0.43-0.25,0.89-0.34,1.4c-0.05,0.25-0.1,0.51-0.16,0.78c-0.05,0.27-0.08,0.55-0.12,0.83
			c-0.04,0.29-0.08,0.58-0.12,0.88c-0.03,0.3-0.06,0.61-0.08,0.93c-0.11,1.26-0.13,2.64-0.1,4.09c0.05,1.45,0.16,2.98,0.37,4.55
			c0.2,1.57,0.47,3.19,0.81,4.81c0.02,0.11,0.05,0.22,0.07,0.33c-0.01,0.04-0.01,0.06-0.01,0.06l0.03,0c0.32,1.5,0.69,3,1.1,4.5
			c0.45,1.63,0.96,3.24,1.48,4.82c0.54,1.57,1.09,3.12,1.67,4.59c0.57,1.48,1.16,2.89,1.75,4.22c0.58,1.33,1.15,2.58,1.71,3.72
			c0.55,1.14,1.07,2.18,1.55,3.1c0.48,0.91,0.9,1.7,1.26,2.35c0.36,0.65,0.65,1.15,0.85,1.49c0.2,0.34,0.3,0.52,0.3,0.52l0.61-0.36
			c0,0-0.11-0.18-0.31-0.52c-0.2-0.34-0.5-0.84-0.86-1.48c-0.37-0.63-0.8-1.41-1.29-2.32c-0.49-0.9-1.02-1.93-1.58-3.06
			c-0.57-1.13-1.15-2.36-1.75-3.68c-0.3-0.67-0.6-1.36-0.91-2.06c0.07-0.34,0.24-1.11,0.48-2.12c0.17-0.69,0.38-1.5,0.63-2.35
			c0.25-0.85,0.52-1.76,0.83-2.66c0.15-0.45,0.32-0.9,0.48-1.33c0.16-0.44,0.35-0.86,0.51-1.27c0.16-0.41,0.36-0.8,0.53-1.17
			c0.17-0.37,0.37-0.7,0.53-1.02c0.16-0.32,0.36-0.58,0.5-0.83c0.08-0.12,0.15-0.24,0.22-0.34c0.08-0.1,0.15-0.19,0.21-0.27
			c0.25-0.33,0.4-0.52,0.4-0.52s-0.15,0.19-0.41,0.51c-0.07,0.08-0.14,0.17-0.22,0.27c-0.07,0.1-0.14,0.22-0.22,0.34
			c-0.15,0.25-0.36,0.51-0.52,0.82c-0.17,0.31-0.38,0.64-0.56,1.01c-0.18,0.37-0.39,0.75-0.56,1.16c-0.18,0.41-0.38,0.83-0.54,1.27
			c-0.18,0.44-0.35,0.88-0.51,1.33c-0.33,0.89-0.63,1.8-0.9,2.65c-0.27,0.85-0.5,1.66-0.68,2.35c-0.18,0.68-0.33,1.24-0.42,1.65
			c-0.22-0.52-0.43-1.04-0.65-1.57c-0.6-1.46-1.16-2.99-1.72-4.55c-0.54-1.57-1.07-3.16-1.53-4.78c-0.42-1.45-0.8-2.9-1.13-4.35
			l0.01,0c0,0,0.14-0.94,0.42-2.35c0.14-0.71,0.31-1.53,0.52-2.4c0.21-0.87,0.44-1.8,0.7-2.72c0.12-0.46,0.27-0.92,0.41-1.37
			c0.14-0.45,0.3-0.89,0.44-1.31c0.15-0.42,0.31-0.83,0.45-1.21c0.15-0.38,0.32-0.74,0.46-1.07c0.14-0.33,0.3-0.62,0.43-0.88
			c0.12-0.26,0.26-0.48,0.36-0.66c0.22-0.36,0.34-0.57,0.34-0.57s-0.13,0.2-0.35,0.56c-0.11,0.18-0.25,0.39-0.38,0.65
			c-0.13,0.26-0.3,0.55-0.45,0.87c-0.15,0.33-0.32,0.68-0.48,1.06c-0.15,0.38-0.33,0.78-0.48,1.21c-0.15,0.42-0.33,0.86-0.47,1.31
			c-0.15,0.45-0.31,0.9-0.44,1.36c-0.29,0.92-0.54,1.84-0.77,2.72c-0.23,0.87-0.42,1.69-0.58,2.39c-0.14,0.63-0.25,1.17-0.33,1.57
			c-0.33-1.5-0.59-3-0.8-4.45c-0.22-1.56-0.35-3.08-0.42-4.53c-0.05-1.45-0.05-2.81,0.05-4.07c0.03-0.31,0.05-0.62,0.07-0.92
			c0.04-0.3,0.07-0.59,0.11-0.88c0.04-0.28,0.06-0.56,0.12-0.83c0.05-0.27,0.1-0.53,0.15-0.78c0.08-0.51,0.21-0.97,0.32-1.4
			c0.06-0.22,0.11-0.42,0.16-0.62c0.06-0.19,0.12-0.38,0.18-0.55c0.12-0.35,0.21-0.66,0.32-0.93C43.08,8.67,43.17,8.45,43.24,8.27
			c0.16-0.36,0.24-0.56,0.24-0.56S43.39,7.9,43.24,8.27z"/>
		<path class="st12" d="M37.84,30.74c-1.74-5.1-5.48-23.81,6.21-26.49C37.42,9.74,35.56,16.37,37.84,30.74z"/>
	</g>
	<g>
		<path class="st9" d="M55.95,56.7c14.58-37.71,45.66-58.49,56.36-48.48C123,18.23,96.86,55.58,59.88,61.47
			C55.26,57.89,55.95,56.7,55.95,56.7z"/>
		<path class="st10" d="M55.95,56.7c14.58-37.71,45.66-58.49,56.36-48.48C123,18.23,90.72,52.54,56.96,59.85
			C55.05,58.11,55.95,56.7,55.95,56.7z"/>
		<path class="st11" d="M107.41,11.91c-0.26,0.04-0.58,0.1-0.95,0.16c-0.37,0.07-0.8,0.19-1.28,0.31c-0.24,0.06-0.49,0.12-0.75,0.19
			c-0.26,0.08-0.53,0.17-0.81,0.26c-0.57,0.18-1.18,0.37-1.82,0.63c-0.32,0.12-0.66,0.25-1,0.38c-0.34,0.13-0.69,0.3-1.04,0.46
			c-0.35,0.16-0.72,0.33-1.09,0.49c-0.36,0.19-0.74,0.38-1.12,0.57c-1.53,0.78-3.12,1.73-4.78,2.81c-1.64,1.09-3.33,2.3-5.02,3.65
			c-1.68,1.34-3.38,2.78-5.04,4.32c-0.11,0.11-0.23,0.21-0.34,0.32c-0.05,0.02-0.08,0.03-0.08,0.03l0.01,0.03
			c-1.53,1.41-3.03,2.9-4.5,4.42c-1.6,1.65-3.14,3.36-4.64,5.05c-1.48,1.71-2.92,3.41-4.25,5.09c-1.35,1.68-2.61,3.33-3.79,4.91
			c-1.17,1.59-2.26,3.1-3.23,4.51c-0.98,1.41-1.85,2.72-2.6,3.9c-0.76,1.17-1.41,2.2-1.93,3.06c-0.53,0.86-0.93,1.53-1.19,1.99
			c-0.27,0.46-0.42,0.7-0.42,0.7l0.79,0.41c0,0,0.14-0.25,0.41-0.71c0.26-0.46,0.65-1.14,1.16-1.99c0.5-0.85,1.14-1.88,1.87-3.05
			c0.74-1.17,1.59-2.49,2.54-3.9c0.95-1.42,2.01-2.94,3.16-4.53c0.58-0.8,1.19-1.63,1.81-2.46c0.44-0.17,1.42-0.53,2.74-0.99
			c0.9-0.31,1.96-0.65,3.1-1c1.14-0.34,2.36-0.69,3.59-0.99c0.61-0.16,1.23-0.3,1.84-0.43c0.61-0.14,1.21-0.24,1.79-0.35
			c0.58-0.12,1.14-0.17,1.68-0.26c0.54-0.08,1.04-0.1,1.51-0.15c0.47-0.06,0.89-0.03,1.27-0.05c0.19,0,0.37-0.01,0.53-0.01
			c0.16,0.01,0.31,0.02,0.45,0.03c0.54,0.04,0.85,0.06,0.85,0.06s-0.3-0.03-0.84-0.08c-0.13-0.01-0.28-0.03-0.44-0.04
			c-0.16,0-0.34,0-0.53-0.01c-0.38,0.01-0.81-0.03-1.27,0.02c-0.47,0.04-0.98,0.04-1.51,0.11c-0.54,0.07-1.1,0.11-1.69,0.22
			c-0.58,0.1-1.19,0.18-1.8,0.31c-0.61,0.12-1.23,0.24-1.85,0.39c-1.24,0.27-2.47,0.6-3.62,0.92c-1.15,0.32-2.22,0.64-3.13,0.93
			c-0.89,0.28-1.64,0.53-2.17,0.72c0.46-0.61,0.93-1.22,1.41-1.83c1.31-1.7,2.72-3.4,4.17-5.12c1.47-1.7,2.98-3.42,4.56-5.08
			c1.41-1.49,2.85-2.95,4.31-4.34l0,0.01c0,0,1.18-0.52,2.98-1.22c0.9-0.35,1.95-0.75,3.09-1.15c1.13-0.4,2.35-0.81,3.58-1.18
			c0.61-0.2,1.23-0.36,1.83-0.53c0.6-0.18,1.21-0.31,1.78-0.46c0.58-0.14,1.15-0.25,1.68-0.37c0.54-0.11,1.04-0.18,1.51-0.26
			c0.47-0.08,0.9-0.11,1.28-0.16c0.38-0.05,0.72-0.06,0.99-0.07c0.55-0.02,0.86-0.03,0.86-0.03s-0.31,0.01-0.86,0.01
			c-0.27,0-0.61,0.01-0.99,0.05c-0.38,0.04-0.82,0.06-1.29,0.13c-0.47,0.07-0.98,0.13-1.52,0.23c-0.54,0.11-1.11,0.2-1.69,0.33
			c-0.58,0.14-1.19,0.26-1.8,0.42c-0.61,0.16-1.24,0.31-1.85,0.49c-1.23,0.34-2.47,0.73-3.61,1.1c-1.15,0.37-2.21,0.75-3.12,1.08
			c-0.82,0.3-1.5,0.56-2.02,0.76c1.53-1.43,3.09-2.79,4.64-4.05c1.66-1.36,3.33-2.59,4.95-3.69c1.63-1.09,3.21-2.06,4.73-2.86
			c0.38-0.2,0.75-0.39,1.11-0.58c0.37-0.17,0.73-0.34,1.08-0.51c0.36-0.16,0.69-0.33,1.03-0.47c0.34-0.14,0.67-0.27,0.99-0.4
			c0.63-0.27,1.25-0.47,1.81-0.65c0.28-0.09,0.55-0.18,0.81-0.27c0.26-0.07,0.51-0.13,0.75-0.2c0.48-0.12,0.9-0.24,1.27-0.32
			C106.83,12.02,107.15,11.97,107.41,11.91c0.52-0.09,0.79-0.14,0.79-0.14S107.92,11.82,107.41,11.91z"/>
		<path class="st12" d="M77.81,22.66c0,0,15.69-17.51,28.87-16.22C96.36,9.19,87.22,13.72,77.81,22.66z"/>
	</g>
	<g>
		<path class="st13" d="M47.13,71.63c4.77,4.18,12.68,7.83,19.81,2.58c6.45-4.75,3.68-15.12-3.91-17.88
			c-6.63-2.41-12.63-0.62-16.91,3.35S47.13,71.63,47.13,71.63z"/>
		<path class="st14" d="M47.13,71.63c4.77,4.18,9.81,6.8,16.93,1.55c6.45-4.75,4.33-12.98-3.06-16.25
			c-5.38-2.39-10.61-1.22-14.9,2.74S47.13,71.63,47.13,71.63z"/>
	</g>
	<g>
		<path class="st0" d="M119.28,117.06l-0.01,0c0,0-0.08-0.03-0.24-0.08c-0.16-0.06-0.4-0.1-0.69-0.24c-0.6-0.24-1.46-0.63-2.53-1.21
			c-2.14-1.13-5.13-2.89-8.64-5.12c-1.75-1.12-3.66-2.34-5.58-3.7c-0.27-0.18-0.41-0.35-0.61-0.55c-0.18-0.23-0.37-0.44-0.55-0.69
			c-0.36-0.48-0.71-0.99-1.06-1.5c-0.69-1.03-1.38-2.11-2.07-3.21c-1.38-2.21-2.8-4.49-4.24-6.8c-0.73-1.16-1.47-2.32-2.25-3.48
			c-0.39-0.58-0.79-1.17-1.2-1.72l-0.15-0.22l-0.14-0.2c-0.09-0.13-0.18-0.26-0.27-0.41c-0.18-0.28-0.34-0.57-0.51-0.86
			c-1.31-2.38-2.44-4.92-3.55-7.41c-1.1-2.49-2.16-4.96-3.18-7.35c-1.02-2.39-2.01-4.71-2.97-6.9c-0.49-1.1-0.97-2.16-1.48-3.19
			c-0.27-0.52-0.5-1.02-0.85-1.56c-0.03-0.04-0.03-0.06-0.07-0.11l-0.12-0.16c-0.08-0.11-0.17-0.21-0.26-0.3l-0.15-0.15
			c-0.08-0.06,0.15,0.1-0.18-0.12l-0.07-0.03c-0.05-0.02-0.1-0.04-0.15-0.06c-0.09-0.03-0.21-0.08-0.29-0.09
			c-0.18-0.02-0.39-0.04-0.52-0.02c-0.15,0.02-0.3,0.05-0.4,0.08c-0.24,0.07-0.41,0.16-0.58,0.24c-0.62,0.35-1.04,0.73-1.44,1.1
			c-0.4,0.37-0.75,0.74-1.09,1.11c-0.66,0.73-1.25,1.44-1.79,2.12c-1.07,1.35-1.95,2.56-2.66,3.55c-0.71,1-1.26,1.79-1.63,2.34
			c-0.37,0.54-0.56,0.83-0.56,0.83c0,0.01-0.01,0.02-0.02,0.03c-0.39,0.62-0.21,1.44,0.41,1.83c0.62,0.39,1.44,0.21,1.83-0.41l0,0
			c0,0,0.18-0.29,0.53-0.84c0.35-0.54,0.86-1.34,1.53-2.33c0.67-0.99,1.5-2.2,2.49-3.52c0.5-0.66,1.04-1.35,1.63-2.04
			c0.3-0.34,0.6-0.68,0.93-1c0.29-0.28,0.6-0.55,0.86-0.73c0.23,0.35,0.47,0.79,0.7,1.22c0.51,0.97,1.01,2,1.53,3.07
			c1.02,2.14,2.07,4.43,3.15,6.79c1.09,2.36,2.21,4.81,3.39,7.28c1.19,2.47,2.39,4.98,3.82,7.42c0.18,0.3,0.37,0.61,0.57,0.91
			c0.1,0.15,0.2,0.3,0.32,0.45l0.32,0.43c0.43,0.55,0.83,1.1,1.22,1.65c0.79,1.12,1.57,2.25,2.32,3.39c1.51,2.28,3,4.52,4.43,6.68
			c0.72,1.08,1.45,2.14,2.17,3.17c0.37,0.51,0.74,1.02,1.12,1.51c0.19,0.25,0.41,0.48,0.61,0.72c0.23,0.23,0.5,0.49,0.74,0.63
			c2.01,1.35,3.93,2.5,5.72,3.57c3.58,2.13,6.62,3.82,8.81,4.89c1.09,0.54,1.97,0.92,2.59,1.14c0.3,0.13,0.55,0.17,0.72,0.23
			c0.16,0.05,0.25,0.07,0.25,0.07c0.04,0.01,0.09-0.01,0.1-0.06C119.35,117.12,119.33,117.08,119.28,117.06z"/>
		<path class="st1" d="M119.28,117.06l-0.01,0c0,0-0.08-0.03-0.24-0.08c-0.16-0.06-0.4-0.1-0.69-0.24c-0.6-0.24-1.46-0.63-2.53-1.21
			c-2.14-1.13-5.13-2.89-8.64-5.12c-1.75-1.12-3.66-2.34-5.58-3.7c-0.27-0.18-0.41-0.35-0.61-0.55c-0.18-0.23-0.37-0.44-0.55-0.69
			c-0.36-0.48-0.71-0.99-1.06-1.5c-0.69-1.03-1.38-2.11-2.07-3.21c-1.38-2.21-2.8-4.49-4.24-6.8c-0.73-1.16-1.47-2.32-2.25-3.48
			c-0.39-0.58-0.79-1.17-1.2-1.72l-0.15-0.22l-0.14-0.2c-0.09-0.13-0.18-0.26-0.27-0.41c-0.18-0.28-0.34-0.57-0.51-0.86
			c-1.31-2.38-2.44-4.92-3.55-7.41c-1.1-2.49-2.16-4.96-3.18-7.35c-1.02-2.39-2.01-4.71-2.97-6.9c-0.49-1.1-0.97-2.16-1.48-3.19
			c-0.27-0.52-0.5-1.02-0.85-1.56c-0.03-0.04-0.03-0.06-0.07-0.11l-0.12-0.16c-0.08-0.11-0.17-0.21-0.26-0.3l-0.15-0.15
			c-0.08-0.06,0.15,0.1-0.18-0.12l-0.07-0.03c-0.05-0.02-0.1-0.04-0.15-0.06c-0.09-0.03-0.21-0.08-0.29-0.09
			c-0.18-0.02-0.39-0.04-0.52-0.02c-0.15,0.02-0.3,0.05-0.4,0.08c-0.24,0.07-0.41,0.16-0.58,0.24c-0.62,0.35-1.04,0.73-1.44,1.1
			c-0.4,0.37-0.75,0.74-1.09,1.11c-0.66,0.73-1.25,1.44-1.79,2.12c-1.07,1.35-1.95,2.56-2.66,3.55c-0.71,1-1.26,1.79-1.63,2.34
			c-0.37,0.54-0.56,0.83-0.56,0.83c0,0.01-0.01,0.02-0.02,0.03c-0.39,0.62-0.21,1.44,0.41,1.83c0.62,0.39,1.57-0.85,1.57-0.85
			s4.97-8.46,8.3-10.73c2.15,3.04,4.64,9.22,5.73,11.59c1.09,2.36,2.21,4.81,3.39,7.28c1.19,2.47,2.25,5.09,3.68,7.53
			c0.18,0.31,0.37,0.61,0.57,0.91c0.1,0.15,0.2,0.3,0.32,0.45l0.32,0.43c0.43,0.55,0.83,1.1,1.22,1.65
			c0.79,1.12,8.04,12.28,8.77,13.3c0.37,0.51,0.74,1.02,1.12,1.51c0.19,0.24,0.41,0.48,0.61,0.72c0.23,0.23,0.5,0.49,0.74,0.63
			c2.01,1.35,3.93,2.5,5.72,3.57c3.58,2.13,6.62,3.82,8.81,4.89c1.09,0.54,1.85,0.95,2.46,1.17c0.3,0.13,0.55,0.17,0.72,0.23
			c0.16,0.05,0.25,0.07,0.25,0.07c0.04,0.01,0.09-0.01,0.1-0.06C119.35,117.12,119.33,117.08,119.28,117.06z"/>
	</g>
	<g>
		<path class="st0" d="M70.78,61.13c-0.08-0.12-0.08-0.12-0.1-0.15c-0.17-0.2-0.11-0.12-0.18-0.2c-0.04-0.04-0.09-0.07-0.13-0.1
			c-0.09-0.06-0.19-0.11-0.3-0.15c-0.41-0.14-0.68-0.07-0.87-0.03c-0.17,0.05-0.3,0.1-0.41,0.15c-0.41,0.21-0.63,0.4-0.87,0.59
			c-0.23,0.19-0.44,0.38-0.63,0.56c-0.39,0.37-0.75,0.74-1.09,1.1c-0.68,0.72-1.29,1.41-1.86,2.07c-1.14,1.31-2.09,2.47-2.88,3.42
			c-1.56,1.9-2.45,2.99-2.45,2.99l-0.01,0.01c0,0.01-0.01,0.01-0.02,0.02c-0.45,0.58-0.35,1.41,0.23,1.86
			c0.58,0.45,1.41,0.35,1.86-0.23c0,0,0.87-1.11,2.38-3.05c0.76-0.96,1.68-2.14,2.75-3.44c0.54-0.65,1.12-1.34,1.74-2.04
			c0.31-0.35,0.63-0.69,0.97-1.02c0.08-0.08,0.16-0.15,0.24-0.22c0.12,0.43,0.24,0.87,0.36,1.33c0.28,1.09,0.56,2.22,0.84,3.4
			c0.56,2.34,1.13,4.83,1.71,7.4c1.14,5.15,2.36,10.64,3.58,16.14c0.16,0.69,0.3,1.38,0.49,2.07c0.19,0.71,0.4,1.38,0.61,2.06
			c0.43,1.35,0.88,2.67,1.34,3.98c0.92,2.62,1.86,5.18,2.8,7.65c0.47,1.24,0.94,2.44,1.42,3.63c0.48,1.18,0.93,2.33,1.49,3.45
			c0.07,0.14,0.15,0.3,0.26,0.44c0.08,0.12,0.2,0.26,0.3,0.38c0.2,0.23,0.4,0.46,0.6,0.67c0.4,0.43,0.81,0.85,1.21,1.26
			c0.8,0.81,1.59,1.58,2.36,2.31c3.06,2.92,5.73,5.22,7.69,6.73c0.98,0.75,1.78,1.31,2.35,1.65c0.29,0.17,0.51,0.3,0.66,0.37
			c0.16,0.08,0.24,0.12,0.24,0.12c0.06,0.03,0.14,0.01,0.17-0.05c0.03-0.06,0.01-0.14-0.05-0.17l-0.01,0c0,0-0.08-0.04-0.22-0.12
			c-0.15-0.07-0.36-0.21-0.63-0.38c-0.55-0.35-1.33-0.92-2.28-1.7c-1.9-1.55-4.5-3.92-7.46-6.91c-0.74-0.75-1.51-1.53-2.28-2.36
			c-0.39-0.41-0.78-0.84-1.16-1.27c-0.37-0.44-0.8-0.88-1-1.34c-0.49-1.06-0.92-2.24-1.36-3.42c-0.44-1.19-0.88-2.41-1.31-3.65
			c-0.87-2.49-1.74-5.06-2.58-7.7c-0.42-1.31-0.83-2.64-1.22-3.98c-0.19-0.66-0.38-1.35-0.54-2c-0.16-0.66-0.29-1.36-0.43-2.04
			c-1.08-5.52-2.15-11.05-3.16-16.22c-0.51-2.59-1.02-5.09-1.52-7.47c-0.25-1.19-0.5-2.34-0.77-3.46c-0.13-0.56-0.26-1.11-0.42-1.67
			c-0.08-0.28-0.15-0.55-0.27-0.87C70.91,61.42,70.91,61.37,70.78,61.13z"/>
		<path class="st1" d="M70.78,61.13c-0.08-0.12-0.08-0.12-0.1-0.15c-0.17-0.2-0.11-0.12-0.18-0.2c-0.04-0.04-0.09-0.07-0.13-0.1
			c-0.09-0.06-0.19-0.11-0.3-0.15c-0.41-0.14-0.68-0.07-0.87-0.03c-0.17,0.05-0.3,0.1-0.41,0.15c-0.41,0.21-0.63,0.4-0.87,0.59
			c-0.23,0.19-0.44,0.38-0.63,0.56c-0.39,0.37-0.75,0.74-1.09,1.1c-0.68,0.72-1.29,1.41-1.86,2.07c-1.14,1.31-2.09,2.47-2.88,3.42
			c-1.56,1.9-2.45,2.99-2.45,2.99l-0.01,0.01c0,0.01-0.01,0.01-0.02,0.02c-0.45,0.58-0.35,1.41,0.23,1.86
			c0.58,0.45,1.22-0.55,1.67-1.13c0,0,8.12-9.94,8.44-9.75c1.14,0.66,5.43,23.73,6.65,29.23c0.16,0.69,0.3,1.38,0.49,2.07
			c0.19,0.71,0.4,1.38,0.61,2.05c0.43,1.35,0.88,2.67,1.34,3.98c0.92,2.62,1.72,4.98,2.66,7.45c0.47,1.23,0.94,2.44,1.42,3.63
			c0.48,1.18,0.83,2.25,1.35,3.4c0.38,0.83,3.92,4.5,4.68,5.23c3.06,2.92,5.73,5.22,7.69,6.73c0.98,0.75,1.78,1.31,2.35,1.65
			c0.29,0.17,0.51,0.3,0.66,0.37c0.16,0.08,0.24,0.12,0.24,0.12c0.06,0.03,0.14,0.01,0.17-0.05c0.03-0.06,0.01-0.14-0.05-0.17
			l-0.01,0c0,0-0.08-0.04-0.22-0.12c-0.15-0.07-0.36-0.21-0.63-0.38c-0.55-0.35-1.33-0.92-2.28-1.7c-1.9-1.55-4.5-3.92-7.46-6.91
			c-0.74-0.75-1.51-1.53-2.28-2.36c-0.39-0.41-0.78-0.84-1.16-1.27c-0.37-0.44-0.8-0.88-1-1.34c-0.49-1.06-0.92-2.24-1.36-3.42
			c-0.44-1.19-0.88-2.41-1.31-3.65c-0.87-2.49-1.74-5.06-2.58-7.7c-0.42-1.31-0.83-2.64-1.22-3.98c-0.19-0.66-0.38-1.35-0.54-2
			c-0.16-0.66-0.29-1.36-0.43-2.04c-1.08-5.52-2.15-11.05-3.16-16.22c-0.51-2.59-1.02-5.09-1.52-7.47c-0.25-1.19-0.5-2.34-0.77-3.46
			c-0.13-0.56-0.26-1.11-0.42-1.67c-0.08-0.28-0.15-0.55-0.27-0.87C70.91,61.42,70.91,61.37,70.78,61.13z"/>
	</g>
	<g>
		<path class="st0" d="M56.31,69.36c0,0-0.2,0.03-0.59,0.09c-0.45,0.08-1.05,0.21-1.79,0.44c-0.74,0.23-1.63,0.56-2.58,1.04
			c-0.48,0.24-0.98,0.52-1.5,0.86c-0.06,0.04-0.13,0.09-0.2,0.13L49.55,72l-0.01,0.01l-0.12,0.1l-0.02,0.02l-0.02,0.02l-0.08,0.08
			c-0.06,0.06-0.12,0.14-0.17,0.21l-0.06,0.11c-0.04,0.07-0.07,0.12-0.09,0.18c-0.06,0.11-0.09,0.2-0.12,0.29
			c-0.13,0.35-0.21,0.66-0.29,0.98c-0.3,1.26-0.53,2.57-0.77,3.96c-0.23,1.39-0.48,2.85-0.73,4.37c-0.25,1.51-0.52,3.07-0.82,4.64
			c-0.3,1.57-0.63,3.17-1.08,4.67c-0.11,0.36-0.25,0.76-0.38,1.05c-0.18,0.36-0.36,0.75-0.55,1.06l-0.28,0.5l-0.32,0.51
			c-0.21,0.34-0.43,0.67-0.65,1c-0.88,1.32-1.82,2.59-2.75,3.8c-0.93,1.21-1.85,2.37-2.75,3.44c-0.89,1.08-1.75,2.1-2.57,2.98
			c-0.79,0.85-1.74,1.4-2.62,1.82c-0.88,0.42-1.7,0.71-2.37,0.93c-0.68,0.22-1.21,0.39-1.58,0.49c-0.37,0.11-0.57,0.16-0.57,0.16
			c-0.06,0.02-0.1,0.08-0.09,0.15c0.02,0.07,0.08,0.11,0.15,0.1c0,0,0.2-0.04,0.58-0.12c0.38-0.08,0.93-0.21,1.63-0.39
			c0.7-0.18,1.54-0.42,2.49-0.79c0.94-0.37,2.02-0.89,2.97-1.78c0.9-0.89,1.78-1.87,2.73-2.92c0.94-1.05,1.91-2.18,2.89-3.37
			c0.98-1.19,1.98-2.44,2.94-3.76c0.24-0.33,0.48-0.66,0.71-1.01l0.35-0.52l0.34-0.55c0.24-0.37,0.42-0.73,0.62-1.09
			c0.22-0.44,0.36-0.82,0.51-1.23c0.56-1.61,0.94-3.21,1.32-4.79c0.37-1.58,0.7-3.13,1.02-4.64c0.32-1.5,0.62-2.95,0.91-4.32
			c0.3-1.36,0.58-2.66,0.9-3.78c0.08-0.27,0.17-0.54,0.25-0.74c0,0,0,0,0,0c0.03-0.02,0.06-0.04,0.09-0.06
			c0.43-0.25,0.87-0.47,1.29-0.66c0.84-0.37,1.61-0.62,2.24-0.78c0.63-0.16,1.14-0.24,1.45-0.28c0.38-0.04,0.58-0.06,0.58-0.06
			l0.01,0c0.02,0,0.04,0,0.06-0.01c0.72-0.12,1.22-0.79,1.1-1.52C57.71,69.74,57.03,69.25,56.31,69.36z"/>
		<path class="st1" d="M56.31,69.36c0,0-0.2,0.03-0.59,0.09c-0.45,0.08-1.05,0.21-1.79,0.44c-0.74,0.23-1.63,0.56-2.58,1.04
			c-0.48,0.24-0.98,0.52-1.5,0.86c-0.06,0.04-0.13,0.09-0.2,0.13L49.55,72l-0.01,0.01l-0.12,0.1l-0.02,0.02l-0.02,0.02l-0.08,0.08
			c-0.06,0.06-0.12,0.14-0.17,0.21l-0.06,0.11c-0.04,0.07-0.07,0.12-0.09,0.18c-0.06,0.11-0.09,0.2-0.12,0.29
			c-0.13,0.35-0.21,0.66-0.29,0.98c-0.3,1.26-0.53,2.57-0.77,3.96c-0.23,1.39-0.48,2.85-0.73,4.37c-0.25,1.51-0.52,3.07-0.82,4.64
			c-0.3,1.57-0.63,3.17-1.08,4.67c-0.11,0.36-0.25,0.76-0.38,1.05c-0.18,0.36-0.36,0.75-0.55,1.06l-0.28,0.5l-0.32,0.51
			c-0.21,0.34-0.43,0.67-0.65,1c-0.88,1.32-1.82,2.59-2.75,3.8c-0.93,1.21-1.85,2.37-2.75,3.44c-0.89,1.08-1.75,2.1-2.57,2.98
			c-0.79,0.85-1.74,1.4-2.62,1.82c-0.88,0.42-1.7,0.71-2.37,0.93c-0.68,0.22-1.21,0.39-1.58,0.49c-0.37,0.11-0.57,0.16-0.57,0.16
			c-0.06,0.02-0.1,0.08-0.09,0.15c0.02,0.07,0.08,0.11,0.15,0.1c0,0,0.2-0.04,0.58-0.12c0.38-0.08,0.81-0.18,1.51-0.36
			c0.7-0.18,1.57-0.55,2.52-0.92c0.94-0.37,1.95-0.93,2.91-1.82c0.9-0.89,1.67-1.71,2.61-2.77c0.94-1.05,1.9-2.25,2.89-3.43
			c0.98-1.19,4.99-6.59,5.41-8.1c0.46-1.64,3.3-16.98,4.49-18.61c0,0,3.23-1,3.87-1.17c0.63-0.16,1.14-0.24,1.45-0.28
			c0.38-0.04,0.58-0.06,0.58-0.06l0.01,0c0.02,0,0.04,0,0.06-0.01c0.72-0.12,1.22-0.79,1.1-1.52
			C57.71,69.74,57.03,69.25,56.31,69.36z"/>
	</g>
	<g>
		<path class="st15" d="M55.59,52.93c1.95,8.42-3.78,16.94-12.78,19.02c-9.01,2.08-17.89-3.05-19.83-11.47
			c-1.95-8.42,3.78-16.94,12.78-19.02C44.76,39.37,53.64,44.51,55.59,52.93z"/>
		<path class="st16" d="M55.59,52.93c-1.95-8.42-10.83-13.56-19.83-11.48c-9.01,2.08-14.73,10.6-12.78,19.02
			c0.6,2.58,1.69,4.93,2.99,7.08c3.25,5.36-14,22.68-21.76,28.55c14.99-7.55,24.25-25.4,34.68-23.7c1.27,0.21,2.61-0.16,3.92-0.46
			C51.81,69.86,57.53,61.35,55.59,52.93z"/>
		<g>
			<path class="st17" d="M38.49,55.46c-0.06,0-0.12,0-0.19-0.01c-0.4-0.08-0.66-0.47-0.58-0.87c0.46-2.33,2.12-4.02,4.34-4.41
				c2.52-0.45,5.08,0.92,6.68,3.56c0.21,0.35,0.1,0.8-0.25,1.02c-0.35,0.21-0.81,0.1-1.02-0.25c-1.3-2.14-3.23-3.21-5.16-2.87
				c-1.61,0.28-2.82,1.53-3.15,3.24C39.11,55.19,38.82,55.43,38.49,55.46z"/>
		</g>
		<g>
			<path class="st17" d="M31.21,55.87c-0.24-0.01-0.47-0.19-0.52-0.44c-0.29-1.29-1.23-2.2-2.44-2.38
				c-1.47-0.22-2.91,0.63-3.84,2.27c-0.15,0.27-0.49,0.36-0.76,0.21c-0.27-0.16-0.36-0.5-0.21-0.76c1.15-2.03,3.06-3.11,4.97-2.83
				c1.69,0.25,2.98,1.5,3.37,3.25c0.07,0.3-0.12,0.6-0.42,0.67C31.3,55.86,31.26,55.87,31.21,55.87z"/>
		</g>
		<g>
			<g>
				<g>
					<path class="st15" d="M40.72,42.27c0,0,0.5-1.23,1.49-2.94c0.5-0.85,1.11-1.83,1.85-2.82c0.37-0.49,0.76-1,1.18-1.49
						c0.42-0.5,0.87-0.98,1.33-1.45c0.47-0.46,0.95-0.91,1.45-1.32c0.24-0.21,0.5-0.41,0.75-0.6c0.25-0.2,0.51-0.37,0.77-0.55
						c0.51-0.35,1.02-0.65,1.53-0.92c0.24-0.14,0.5-0.25,0.74-0.37c0.24-0.12,0.48-0.22,0.71-0.31c0.45-0.2,0.89-0.32,1.27-0.45
						c0.39-0.11,0.72-0.19,1.01-0.26c0.57-0.11,0.89-0.17,0.89-0.17c0.04-0.01,0.08,0.02,0.09,0.06c0.01,0.04-0.02,0.08-0.06,0.09
						l0,0c0,0-0.32,0.06-0.88,0.18c-0.28,0.07-0.61,0.16-0.99,0.27c-0.37,0.13-0.8,0.26-1.25,0.46c-0.23,0.09-0.46,0.19-0.69,0.31
						c-0.24,0.12-0.48,0.23-0.73,0.37c-0.49,0.27-0.99,0.57-1.5,0.92c-0.25,0.17-0.51,0.35-0.75,0.55c-0.25,0.19-0.5,0.39-0.74,0.6
						c-0.49,0.41-0.96,0.86-1.42,1.32c-0.45,0.47-0.89,0.95-1.3,1.44c-0.41,0.49-0.8,0.99-1.15,1.49c-0.72,0.99-1.32,1.96-1.8,2.81
						c-0.48,0.85-0.84,1.58-1.08,2.1c-0.24,0.52-0.36,0.81-0.36,0.81c-0.04,0.1-0.15,0.15-0.24,0.11
						C40.73,42.48,40.68,42.37,40.72,42.27C40.72,42.27,40.72,42.27,40.72,42.27z"/>
				</g>
				<g>
					<path class="st15" d="M41.79,36.28c0.22,0.4,0.41,0.81,0.59,1.23c0.18,0.41,0.35,0.84,0.5,1.26l-0.19-0.12
						c0.54-0.05,1.07-0.07,1.61-0.09c0.27,0,0.54-0.01,0.81,0c0.27,0.01,0.54,0.01,0.81,0.04c-0.27,0.07-0.53,0.11-0.8,0.16
						c-0.26,0.04-0.53,0.08-0.8,0.12c-0.53,0.07-1.07,0.12-1.6,0.15l-0.14,0.01l-0.05-0.13c-0.15-0.43-0.29-0.86-0.42-1.29
						C41.99,37.17,41.88,36.73,41.79,36.28z"/>
				</g>
				<g>
					<path class="st15" d="M43.99,33.75c0.18,0.36,0.32,0.74,0.45,1.12c0.13,0.38,0.24,0.76,0.34,1.14l-0.2-0.14
						c0.37-0.03,0.75-0.05,1.12-0.05c0.38,0,0.75,0.01,1.13,0.05c-0.37,0.11-0.74,0.18-1.11,0.24c-0.37,0.06-0.74,0.1-1.11,0.13
						l-0.16,0.01l-0.04-0.15c-0.1-0.38-0.19-0.77-0.27-1.16C44.07,34.55,44.01,34.15,43.99,33.75z"/>
				</g>
				<g>
					<path class="st15" d="M46.51,31.42c0.31,0.6,0.51,1.23,0.68,1.86l-0.13-0.13c0.33,0.09,0.65,0.19,0.97,0.31
						c0.32,0.12,0.64,0.25,0.94,0.41c-0.35-0.01-0.69-0.06-1.02-0.12c-0.34-0.06-0.67-0.14-0.99-0.23l-0.11-0.03l-0.03-0.1
						C46.67,32.74,46.53,32.1,46.51,31.42z"/>
				</g>
				<g>
					<path class="st15" d="M49.03,29.72c0.12,0.28,0.2,0.56,0.26,0.85c0.07,0.28,0.12,0.57,0.15,0.86l-0.13-0.15
						c0.26,0.09,0.52,0.18,0.77,0.29c0.25,0.11,0.5,0.23,0.74,0.39c-0.28-0.01-0.56-0.06-0.83-0.11c-0.27-0.06-0.54-0.13-0.8-0.21
						l-0.11-0.03l-0.01-0.12c-0.04-0.29-0.07-0.58-0.08-0.87C48.98,30.31,48.98,30.01,49.03,29.72z"/>
				</g>
				<g>
					<path class="st15" d="M51.41,28.76c0.09,0.48,0.08,0.95,0.04,1.41l-0.08-0.13c0.34,0.16,0.68,0.34,0.99,0.58
						c-0.38-0.07-0.74-0.2-1.09-0.34l-0.08-0.03l0-0.09C51.22,29.69,51.27,29.22,51.41,28.76z"/>
				</g>
				<g>
					<path class="st15" d="M53.62,27.95c0.01,0.22,0,0.45-0.01,0.67c-0.02,0.22-0.04,0.44-0.08,0.66L53.5,29.2
						c0.22,0.21,0.43,0.43,0.62,0.68c-0.27-0.16-0.51-0.34-0.75-0.54l-0.03-0.03l0-0.05c0.03-0.22,0.06-0.44,0.1-0.66
						C53.5,28.38,53.54,28.16,53.62,27.95z"/>
				</g>
			</g>
		</g>
		<g>
			<g>
				<g>
					<path class="st15" d="M28.21,46.12c0,0-0.99-0.78-2.61-1.73c-0.81-0.47-1.78-0.99-2.85-1.47c-0.54-0.24-1.1-0.47-1.68-0.68
						c-0.58-0.21-1.17-0.4-1.78-0.57c-0.6-0.16-1.21-0.31-1.82-0.42c-0.3-0.06-0.6-0.1-0.9-0.14c-0.3-0.04-0.6-0.07-0.89-0.09
						c-0.58-0.05-1.15-0.06-1.69-0.04c-0.27,0-0.53,0.02-0.78,0.04c-0.25,0.01-0.5,0.04-0.73,0.08c-0.47,0.05-0.89,0.15-1.26,0.22
						c-0.37,0.09-0.69,0.18-0.95,0.25c-0.52,0.18-0.81,0.28-0.81,0.28c-0.03,0.01-0.06,0.05-0.04,0.09
						c0.01,0.04,0.05,0.06,0.09,0.04l0,0c0,0,0.29-0.1,0.81-0.27c0.26-0.07,0.58-0.15,0.94-0.24c0.37-0.07,0.79-0.16,1.25-0.2
						c0.23-0.03,0.47-0.06,0.72-0.07c0.25-0.02,0.51-0.04,0.77-0.03c0.53-0.01,1.09,0.01,1.67,0.06c0.29,0.03,0.58,0.05,0.88,0.1
						c0.3,0.04,0.59,0.09,0.89,0.15c0.6,0.11,1.2,0.26,1.79,0.43c0.59,0.17,1.18,0.37,1.75,0.59c0.57,0.21,1.12,0.45,1.65,0.69
						c1.05,0.48,2,1.01,2.8,1.48c0.8,0.48,1.43,0.91,1.87,1.23c0.44,0.32,0.68,0.51,0.68,0.51c0.08,0.06,0.19,0.05,0.25-0.03
						C28.3,46.3,28.29,46.19,28.21,46.12L28.21,46.12z"/>
				</g>
				<g>
					<path class="st15" d="M24.53,41.67c0.01,0.43,0.04,0.86,0.09,1.29c0.04,0.43,0.1,0.85,0.17,1.28l0.1-0.19
						c-0.46,0.21-0.92,0.44-1.37,0.68c-0.22,0.12-0.45,0.24-0.67,0.37c-0.22,0.13-0.44,0.26-0.65,0.41
						c0.25-0.07,0.49-0.16,0.73-0.24c0.24-0.09,0.48-0.18,0.72-0.28c0.47-0.19,0.94-0.4,1.39-0.62l0.12-0.06l-0.02-0.13
						c-0.07-0.42-0.16-0.84-0.26-1.26C24.78,42.5,24.67,42.08,24.53,41.67z"/>
				</g>
				<g>
					<path class="st15" d="M21.53,40.6c0.02,0.38,0.08,0.76,0.15,1.13c0.07,0.37,0.15,0.74,0.25,1.11l0.1-0.21
						c-0.32,0.15-0.64,0.31-0.95,0.48c-0.31,0.17-0.62,0.36-0.91,0.57c0.35-0.08,0.69-0.2,1.02-0.32c0.33-0.12,0.66-0.26,0.99-0.41
						l0.14-0.06l-0.04-0.15c-0.1-0.37-0.2-0.73-0.32-1.09C21.83,41.31,21.7,40.95,21.53,40.6z"/>
				</g>
				<g>
					<path class="st15" d="M18.36,39.86c0.03,0.64,0.15,1.25,0.3,1.86l0.05-0.17c-0.23,0.23-0.45,0.46-0.66,0.71
						c-0.21,0.25-0.41,0.5-0.59,0.78c0.28-0.17,0.54-0.37,0.79-0.58c0.25-0.21,0.48-0.43,0.71-0.66l0.08-0.07l-0.03-0.1
						C18.84,41.03,18.65,40.43,18.36,39.86z"/>
				</g>
				<g>
					<path class="st15" d="M15.48,39.63c0.03,0.29,0.1,0.56,0.18,0.82c0.08,0.27,0.17,0.53,0.28,0.78l0.03-0.19
						c-0.17,0.2-0.34,0.39-0.5,0.6c-0.16,0.21-0.31,0.43-0.43,0.67c0.23-0.14,0.43-0.31,0.63-0.48c0.2-0.17,0.38-0.36,0.56-0.55
						l0.08-0.08l-0.04-0.11c-0.1-0.26-0.21-0.51-0.34-0.75C15.79,40.09,15.65,39.85,15.48,39.63z"/>
				</g>
				<g>
					<path class="st15" d="M13.05,39.95c0.15,0.43,0.38,0.82,0.63,1.19l0-0.14c-0.21,0.29-0.4,0.6-0.54,0.94
						c0.29-0.24,0.52-0.51,0.74-0.8l0.05-0.07l-0.05-0.07C13.65,40.63,13.39,40.27,13.05,39.95z"/>
				</g>
				<g>
					<path class="st15" d="M10.86,40.31c0.09,0.19,0.21,0.37,0.32,0.55c0.12,0.17,0.24,0.34,0.37,0.51l-0.01-0.08
						c-0.09,0.28-0.16,0.56-0.2,0.85c0.15-0.26,0.26-0.52,0.36-0.79l0.02-0.04l-0.03-0.04c-0.12-0.17-0.25-0.34-0.39-0.49
						C11.16,40.61,11.02,40.46,10.86,40.31z"/>
				</g>
			</g>
		</g>
		<path class="st7" d="M37.18,70.62c3.01-1.67,4.57-10.38,9.81-7.95C52.23,65.11,46.83,72.58,37.18,70.62z"/>
		<path class="st18" d="M37.18,70.62c0,0,0.2-0.06,0.55-0.17c0.35-0.11,0.84-0.29,1.42-0.52c0.29-0.11,0.6-0.24,0.93-0.39
			c0.33-0.14,0.66-0.32,1.02-0.48c0.35-0.17,0.7-0.37,1.06-0.56c0.35-0.21,0.72-0.4,1.06-0.64c0.35-0.23,0.7-0.45,1.02-0.7
			c0.16-0.12,0.33-0.24,0.49-0.36c0.15-0.13,0.3-0.26,0.45-0.38c0.15-0.13,0.29-0.25,0.44-0.37c0.13-0.13,0.27-0.26,0.39-0.38
			c0.26-0.24,0.5-0.48,0.7-0.72c0.21-0.24,0.4-0.45,0.56-0.64c0.15-0.21,0.28-0.38,0.39-0.53c0.22-0.29,0.35-0.46,0.35-0.46
			s-0.11,0.18-0.29,0.5c-0.09,0.16-0.21,0.35-0.34,0.57c-0.15,0.21-0.32,0.44-0.51,0.69c-0.18,0.26-0.42,0.51-0.66,0.78
			c-0.12,0.13-0.25,0.27-0.38,0.41c-0.14,0.13-0.29,0.26-0.43,0.39c-0.15,0.13-0.3,0.27-0.45,0.4c-0.16,0.12-0.33,0.25-0.49,0.38
			c-0.33,0.26-0.68,0.49-1.03,0.73c-0.35,0.24-0.73,0.43-1.09,0.64c-0.36,0.2-0.73,0.38-1.09,0.54c-0.36,0.16-0.71,0.31-1.05,0.43
			c-0.34,0.13-0.66,0.24-0.96,0.33c-0.3,0.1-0.58,0.17-0.83,0.24c-0.25,0.06-0.47,0.12-0.65,0.15
			C37.39,70.59,37.18,70.62,37.18,70.62z"/>
		<path class="st18" d="M44.37,62.98c0,0,0.23,0.26,0.56,0.66c0.08,0.1,0.19,0.19,0.29,0.29c0.1,0.1,0.21,0.21,0.32,0.32
			c0.11,0.12,0.24,0.21,0.36,0.33c0.12,0.11,0.25,0.22,0.38,0.34c0.13,0.11,0.26,0.21,0.39,0.32c0.13,0.1,0.25,0.22,0.38,0.31
			c0.26,0.19,0.49,0.38,0.7,0.53c0.41,0.31,0.69,0.5,0.69,0.5s-0.31-0.14-0.75-0.41c-0.22-0.13-0.47-0.3-0.74-0.48
			c-0.27-0.18-0.53-0.41-0.8-0.62c-0.13-0.12-0.26-0.23-0.38-0.35c-0.12-0.12-0.25-0.22-0.36-0.35c-0.11-0.12-0.21-0.24-0.31-0.35
			c-0.1-0.11-0.2-0.21-0.27-0.32C44.56,63.27,44.37,62.98,44.37,62.98z"/>
		<path class="st18" d="M42.22,65.47c0,0,0.05,0.07,0.14,0.19c0.08,0.13,0.22,0.29,0.39,0.48c0.09,0.09,0.18,0.19,0.28,0.3
			c0.1,0.1,0.21,0.21,0.33,0.32c0.24,0.22,0.49,0.45,0.76,0.66c0.26,0.22,0.53,0.43,0.79,0.62c0.26,0.19,0.5,0.37,0.71,0.52
			c0.42,0.3,0.7,0.5,0.7,0.5s-0.31-0.14-0.76-0.41c-0.22-0.13-0.48-0.29-0.75-0.48c-0.27-0.18-0.54-0.39-0.81-0.61
			c-0.27-0.22-0.52-0.45-0.75-0.69c-0.23-0.23-0.42-0.47-0.58-0.68c-0.15-0.21-0.27-0.39-0.33-0.53
			C42.26,65.55,42.22,65.47,42.22,65.47z"/>
		<path class="st18" d="M40.12,67.34c0,0,0.19,0.24,0.46,0.6c0.06,0.1,0.16,0.18,0.24,0.27c0.09,0.09,0.18,0.19,0.28,0.29
			c0.09,0.11,0.2,0.2,0.31,0.3c0.11,0.1,0.22,0.2,0.33,0.3c0.11,0.1,0.23,0.19,0.35,0.28c0.12,0.09,0.23,0.18,0.34,0.27
			c0.23,0.16,0.44,0.33,0.63,0.44c0.19,0.12,0.35,0.23,0.46,0.3c0.11,0.07,0.18,0.11,0.18,0.11s-0.07-0.02-0.19-0.08
			c-0.12-0.05-0.3-0.13-0.5-0.24c-0.21-0.1-0.43-0.25-0.67-0.4c-0.12-0.08-0.24-0.17-0.36-0.26c-0.12-0.09-0.25-0.18-0.36-0.28
			c-0.22-0.21-0.46-0.4-0.64-0.63c-0.09-0.11-0.18-0.22-0.26-0.32c-0.08-0.1-0.17-0.19-0.22-0.3
			C40.26,67.61,40.12,67.34,40.12,67.34z"/>
	</g>
</g>
</svg>
