<?xml version="1.0" encoding="utf-8"?>
<!-- Generator: Adobe Illustrator 24.0.2, SVG Export Plug-In . SVG Version: 6.00 Build 0)  -->
<svg version="1.1" id="圖層_1" xmlns="http://www.w3.org/2000/svg" xmlns:xlink="http://www.w3.org/1999/xlink" x="0px" y="0px"
	 viewBox="0 0 130 130" style="enable-background:new 0 0 130 130;" xml:space="preserve">
<style type="text/css">
	.st0{fill:#E6E7E8;}
	.st1{fill:#232526;}
	.st2{fill:#393C3E;}
	.st3{fill:#FFFFFF;}
	.st4{fill:#BC0024;}
	.st5{fill:#DD0021;}
	.st6{fill:#121415;}
	.st7{fill:#B5DDE8;}
	.st8{fill:#D5EEF7;}
	.st9{fill:#92C5D3;}
	.st10{fill:#F2FAFC;}
	.st11{fill:#563B24;}
	.st12{fill:#6B4A32;}
	.st13{fill:#AA7B50;}
	.st14{fill:#B8926C;}
	.st15{fill:#808285;}
	.st16{fill:#E598B2;}
	.st17{fill:#F4AEC2;}
	.st18{fill:#D37695;}
</style>
<g>
	<path class="st0" d="M29.45,55.3c-5.6,0.05-7.81,7.33-3.13,10.91c4.37,3.35,10.07,1.38,13.26,2.59c1.06,0.41,5.97,4.91,6.18,6.12
		c1.98,11.41,9.29-1,13.38-1.97c4.08-0.97,27.44-0.05,32.94-0.58c5.5-0.53,24.04-8.11,22.46-14.72c-1.59-6.62-30.44,2.1-41.31,2.08
		c-10.87-0.02-8.79-8.44-17.3-10.36c-9.46-2.13-16.81,5.49-23.22,3.9C26.32,51.69,29.45,55.3,29.45,55.3z"/>
	<g>
		<path class="st1" d="M67.86,61.02c5.27-8.12,17.67-18.79,26.91-23.99c9.24-5.21,25.92-9.69,29.2-3.27
			c2.08,4.08-7.19,20.13-22,29.01c-10.8,6.48-26.25,10.19-35.37,3.71C65.82,61.71,67.86,61.02,67.86,61.02z"/>
		<path class="st2" d="M117.64,39.88c1.58-2.89,1.11-7.08-1.27-9.29c-6.56,0.01-15.64,3.07-21.61,6.44
			c-9.24,5.21-21.64,15.87-26.91,23.99c0,0-1.99,0.67-1.29,5.28C86.33,72.79,107.83,56.8,117.64,39.88z"/>
		<path class="st3" d="M75.15,65.48c0,0.91-0.85,1.65-1.91,1.65c-1.05,0-1.91-0.74-1.91-1.65c0-0.91,0.85-1.65,1.91-1.65
			C74.29,63.84,75.15,64.57,75.15,65.48z"/>
		<path class="st4" d="M123.01,32.51c-4.77-4.49-19.7-0.3-28.25,4.52c-9.24,5.21-21.64,15.87-26.91,23.99c0,0-0.78,0.26-1.19,1.59
			C93.1,64.07,121.29,39.65,123.01,32.51z"/>
		<path class="st5" d="M116.38,30.6c-6.56,0.01-15.64,3.06-21.62,6.43c-9.24,5.21-21.64,15.87-26.91,23.99c0,0-0.78,0.26-1.19,1.59
			c20.02,1.1,41.05-12.64,50.82-22.47c0.05-0.09,0.1-0.17,0.15-0.26C119.22,36.99,118.75,32.81,116.38,30.6z"/>
		<path class="st6" d="M74.22,53.27c0,0,0.21,0.18,0.58,0.5c0.19,0.16,0.37,0.39,0.61,0.64c0.24,0.25,0.46,0.57,0.72,0.9
			c0.12,0.17,0.23,0.36,0.36,0.55c0.13,0.19,0.25,0.39,0.36,0.6c0.12,0.21,0.24,0.43,0.36,0.65c0.11,0.23,0.21,0.47,0.32,0.71
			c0.11,0.24,0.2,0.49,0.3,0.74c0.09,0.25,0.2,0.51,0.28,0.77c0.08,0.26,0.16,0.53,0.25,0.8c0.08,0.27,0.14,0.54,0.21,0.81
			c0.07,0.27,0.12,0.55,0.17,0.82c0.05,0.28,0.1,0.55,0.14,0.82c0.07,0.55,0.15,1.09,0.18,1.61c0.02,0.26,0.04,0.52,0.05,0.77
			c0,0.25,0,0.5,0.01,0.74c0.01,0.48-0.02,0.94-0.04,1.35c-0.01,0.42-0.07,0.8-0.1,1.14c-0.03,0.34-0.08,0.63-0.12,0.87
			c-0.08,0.48-0.13,0.76-0.13,0.76s0.02-0.28,0.06-0.77c0.02-0.24,0.05-0.54,0.05-0.88c0-0.34,0.04-0.72,0.03-1.14
			c-0.01-0.42,0.01-0.87-0.03-1.34c-0.01-0.24-0.03-0.48-0.04-0.73c-0.02-0.25-0.04-0.5-0.07-0.76c-0.03-0.52-0.13-1.05-0.2-1.59
			c-0.04-0.27-0.1-0.54-0.15-0.81c-0.05-0.27-0.11-0.54-0.18-0.81c-0.06-0.27-0.12-0.54-0.19-0.8c-0.08-0.27-0.15-0.53-0.23-0.79
			c-0.07-0.26-0.17-0.51-0.26-0.77c-0.09-0.25-0.17-0.5-0.28-0.74c-0.1-0.24-0.2-0.47-0.3-0.7c-0.11-0.22-0.22-0.44-0.32-0.65
			c-0.1-0.22-0.21-0.42-0.33-0.61c-0.11-0.19-0.22-0.38-0.33-0.56c-0.24-0.33-0.43-0.67-0.65-0.93c-0.22-0.26-0.38-0.5-0.56-0.67
			C74.42,53.48,74.22,53.27,74.22,53.27z"/>
		<path class="st6" d="M81.33,46.64c0,0,0.07,0.06,0.21,0.17c0.13,0.11,0.34,0.27,0.59,0.49c0.24,0.22,0.55,0.48,0.87,0.82
			c0.16,0.17,0.33,0.34,0.52,0.52c0.17,0.19,0.35,0.4,0.54,0.61c0.19,0.21,0.37,0.45,0.56,0.69c0.19,0.24,0.39,0.48,0.57,0.76
			c0.18,0.27,0.38,0.54,0.57,0.82c0.17,0.29,0.35,0.6,0.53,0.9c0.19,0.3,0.34,0.63,0.51,0.95c0.16,0.33,0.34,0.65,0.48,1
			c0.15,0.34,0.29,0.69,0.44,1.04c0.12,0.36,0.25,0.72,0.37,1.08c0.06,0.18,0.12,0.36,0.17,0.54l0.14,0.55
			c0.09,0.37,0.19,0.73,0.27,1.09c0.06,0.37,0.13,0.73,0.19,1.09c0.03,0.18,0.06,0.36,0.09,0.54c0.02,0.18,0.04,0.36,0.05,0.53
			c0.06,0.71,0.15,1.39,0.13,2.04c0,0.65,0.03,1.26-0.03,1.83c-0.04,0.56-0.08,1.08-0.12,1.54c-0.07,0.45-0.13,0.85-0.18,1.18
			c-0.1,0.65-0.17,1.02-0.17,1.02s0.03-0.38,0.09-1.03c0.03-0.33,0.07-0.72,0.12-1.18c0.01-0.46,0.03-0.97,0.05-1.53
			c0.04-0.56-0.02-1.17-0.03-1.81c0-0.64-0.11-1.31-0.17-2.01c-0.02-0.17-0.03-0.35-0.06-0.53c-0.03-0.17-0.06-0.35-0.1-0.53
			c-0.06-0.35-0.13-0.71-0.2-1.07c-0.08-0.36-0.18-0.71-0.27-1.07l-0.14-0.54c-0.05-0.18-0.12-0.35-0.17-0.53
			c-0.12-0.35-0.24-0.71-0.35-1.06c-0.14-0.34-0.28-0.69-0.42-1.03c-0.13-0.35-0.3-0.67-0.46-0.99c-0.16-0.32-0.31-0.65-0.49-0.95
			c-0.17-0.31-0.34-0.6-0.51-0.9c-0.18-0.28-0.36-0.56-0.53-0.83c-0.17-0.28-0.36-0.52-0.54-0.77c-0.18-0.24-0.35-0.48-0.53-0.7
			c-0.18-0.22-0.35-0.43-0.51-0.63c-0.17-0.19-0.33-0.38-0.48-0.55c-0.3-0.35-0.59-0.62-0.81-0.86c-0.23-0.24-0.42-0.41-0.55-0.53
			C81.4,46.7,81.33,46.64,81.33,46.64z"/>
		<path class="st6" d="M91.55,39.31c0,0,0.35,0.23,0.96,0.64c0.28,0.24,0.63,0.52,1.01,0.86c0.18,0.18,0.37,0.38,0.57,0.58
			c0.21,0.2,0.41,0.42,0.61,0.67c0.2,0.24,0.41,0.5,0.63,0.76c0.21,0.27,0.41,0.56,0.62,0.85c0.11,0.15,0.21,0.3,0.32,0.45
			c0.1,0.16,0.2,0.32,0.3,0.48c0.2,0.32,0.41,0.65,0.61,0.99c0.37,0.7,0.78,1.4,1.12,2.16c0.37,0.74,0.68,1.53,0.99,2.31
			c0.16,0.39,0.27,0.8,0.41,1.19c0.13,0.4,0.28,0.79,0.38,1.19c0.11,0.4,0.22,0.8,0.32,1.19c0.11,0.39,0.18,0.79,0.26,1.17
			c0.07,0.39,0.18,0.76,0.22,1.14c0.05,0.38,0.1,0.74,0.16,1.1c0.02,0.18,0.05,0.36,0.07,0.53c0.01,0.17,0.03,0.35,0.04,0.52
			c0.03,0.34,0.05,0.67,0.07,0.98c0.03,0.32,0.04,0.62,0.03,0.91c0,0.29,0,0.56,0,0.82c0.01,0.51-0.03,0.96-0.06,1.32
			c-0.06,0.73-0.1,1.15-0.1,1.15s0.01-0.42,0.02-1.15c0.01-0.36,0.03-0.81-0.01-1.32c-0.01-0.25-0.03-0.52-0.04-0.81
			c-0.01-0.29-0.02-0.58-0.06-0.89c-0.03-0.31-0.07-0.64-0.1-0.97c-0.02-0.17-0.04-0.34-0.05-0.51c-0.03-0.17-0.06-0.35-0.09-0.52
			c-0.06-0.35-0.12-0.72-0.19-1.09c-0.06-0.37-0.16-0.74-0.24-1.12c-0.09-0.38-0.16-0.77-0.27-1.16c-0.11-0.39-0.22-0.78-0.33-1.17
			c-0.1-0.4-0.25-0.78-0.38-1.18c-0.14-0.39-0.26-0.79-0.42-1.18c-0.3-0.78-0.6-1.55-0.96-2.29c-0.32-0.75-0.72-1.46-1.08-2.15
			c-0.2-0.34-0.4-0.67-0.59-0.99c-0.1-0.16-0.19-0.32-0.28-0.48c-0.1-0.15-0.2-0.3-0.3-0.45c-0.2-0.29-0.39-0.59-0.59-0.86
			c-0.21-0.27-0.41-0.52-0.6-0.77c-0.1-0.12-0.19-0.25-0.29-0.36c-0.1-0.11-0.2-0.22-0.29-0.32c-0.19-0.21-0.37-0.42-0.54-0.6
			c-0.36-0.35-0.69-0.65-0.96-0.9C91.88,39.56,91.55,39.31,91.55,39.31z"/>
		<path class="st6" d="M102.76,33.43c0,0,0.29,0.24,0.8,0.67c0.24,0.23,0.54,0.5,0.87,0.82c0.32,0.33,0.7,0.7,1.06,1.14
			c0.18,0.22,0.39,0.44,0.58,0.68c0.19,0.24,0.38,0.5,0.58,0.75c0.2,0.26,0.38,0.54,0.58,0.82c0.1,0.14,0.2,0.29,0.29,0.43
			c0.09,0.15,0.18,0.3,0.28,0.46c0.18,0.31,0.38,0.61,0.55,0.94c0.17,0.32,0.35,0.65,0.53,0.99c0.17,0.33,0.32,0.68,0.49,1.03
			l0.24,0.52l0.21,0.53c0.14,0.36,0.28,0.71,0.41,1.07c0.12,0.36,0.23,0.72,0.35,1.08c0.12,0.35,0.21,0.72,0.31,1.07
			c0.09,0.36,0.18,0.71,0.28,1.05c0.14,0.7,0.29,1.38,0.39,2.02c0.08,0.65,0.19,1.26,0.24,1.83c0.04,0.57,0.08,1.09,0.12,1.55
			c0.03,0.46,0.02,0.87,0.03,1.2c0.01,0.66,0.01,1.04,0.01,1.04s-0.03-0.38-0.08-1.04c-0.03-0.33-0.05-0.73-0.1-1.19
			c-0.06-0.46-0.12-0.98-0.19-1.54c-0.07-0.56-0.19-1.17-0.3-1.81c-0.11-0.64-0.29-1.3-0.43-2c-0.09-0.34-0.19-0.69-0.29-1.04
			c-0.1-0.35-0.19-0.71-0.32-1.06c-0.12-0.35-0.24-0.71-0.36-1.06c-0.13-0.35-0.28-0.7-0.41-1.05l-0.2-0.53l-0.23-0.52
			c-0.16-0.34-0.3-0.69-0.47-1.02c-0.17-0.33-0.34-0.66-0.51-0.98c-0.17-0.32-0.36-0.63-0.54-0.93c-0.09-0.15-0.18-0.3-0.27-0.45
			c-0.09-0.15-0.19-0.29-0.28-0.43c-0.19-0.28-0.36-0.57-0.55-0.83c-0.19-0.27-0.37-0.52-0.55-0.77c-0.18-0.25-0.37-0.47-0.55-0.7
			c-0.35-0.45-0.7-0.83-1-1.18c-0.31-0.34-0.6-0.62-0.82-0.86C103.03,33.69,102.76,33.43,102.76,33.43z"/>
		<path class="st6" d="M111.96,30.98c0,0,0.25,0.12,0.68,0.33c0.2,0.13,0.45,0.28,0.74,0.47c0.26,0.21,0.58,0.42,0.88,0.71
			c0.15,0.14,0.31,0.28,0.48,0.44c0.15,0.16,0.31,0.33,0.48,0.5c0.17,0.17,0.33,0.35,0.48,0.55c0.16,0.19,0.32,0.39,0.48,0.59
			c0.3,0.42,0.62,0.85,0.9,1.32c0.3,0.45,0.55,0.95,0.82,1.43c0.12,0.25,0.23,0.5,0.35,0.75c0.12,0.25,0.23,0.5,0.32,0.75
			c0.1,0.25,0.19,0.51,0.29,0.75c0.08,0.25,0.16,0.5,0.24,0.75c0.17,0.49,0.26,0.98,0.37,1.44c0.11,0.46,0.15,0.91,0.22,1.31
			c0.06,0.41,0.07,0.79,0.09,1.12c0.03,0.33,0.01,0.63,0.01,0.87c-0.01,0.48-0.02,0.75-0.02,0.75s-0.02-0.27-0.05-0.75
			c-0.02-0.24-0.02-0.53-0.08-0.86c-0.05-0.33-0.09-0.7-0.16-1.1c-0.09-0.4-0.15-0.84-0.28-1.29c-0.13-0.45-0.24-0.93-0.41-1.41
			c-0.08-0.24-0.16-0.49-0.25-0.74c-0.1-0.24-0.2-0.49-0.3-0.74c-0.09-0.25-0.21-0.49-0.32-0.74c-0.12-0.24-0.23-0.49-0.35-0.73
			c-0.26-0.48-0.49-0.96-0.78-1.41c-0.27-0.46-0.57-0.89-0.86-1.31c-0.15-0.21-0.31-0.4-0.45-0.59c-0.15-0.2-0.29-0.39-0.45-0.56
			c-0.15-0.18-0.3-0.35-0.44-0.51c-0.15-0.15-0.3-0.31-0.45-0.45c-0.14-0.15-0.29-0.28-0.43-0.4c-0.14-0.12-0.27-0.24-0.39-0.35
			c-0.26-0.2-0.5-0.37-0.69-0.51C112.19,31.12,111.96,30.98,111.96,30.98z"/>
		<path class="st3" d="M86.27,64.82c0,1.18-0.91,2.14-2.03,2.14c-1.12,0-2.03-0.96-2.03-2.14c0-1.18,0.91-2.14,2.03-2.14
			C85.36,62.68,86.27,63.63,86.27,64.82z"/>
		<path class="st3" d="M97.45,61.12c0,1.18-0.95,2.15-2.12,2.15c-1.17,0-2.12-0.96-2.12-2.15c0-1.18,0.95-2.15,2.12-2.15
			C96.5,58.98,97.45,59.94,97.45,61.12z"/>
		<path class="st3" d="M108.58,54.16c0,1.24-0.92,2.25-2.05,2.25c-1.13,0-2.05-1.01-2.05-2.25c0-1.24,0.92-2.25,2.05-2.25
			C107.66,51.91,108.58,52.92,108.58,54.16z"/>
		<path class="st0" d="M117.19,46.33c0.17,0.87-0.28,1.69-1,1.83c-0.72,0.14-1.44-0.45-1.61-1.32c-0.17-0.87,0.28-1.69,1-1.83
			C116.3,44.87,117.02,45.47,117.19,46.33z"/>
		<path class="st0" d="M122.56,37.9c0.22,0.59,0.04,1.2-0.39,1.36c-0.44,0.16-0.97-0.19-1.18-0.78c-0.22-0.59-0.04-1.2,0.39-1.36
			C121.81,36.96,122.34,37.31,122.56,37.9z"/>
	</g>
	<g>
		<path class="st7" d="M45.96,53.21C45.25,31.43,61,2.92,74.38,9.38c13.38,6.46-6.38,34.86-23.8,47.94
			C46.85,55.2,45.96,53.21,45.96,53.21z"/>
		<path class="st8" d="M45.96,53.21C45.25,31.43,61.06,2.8,74.38,9.38c11.69,5.78-8.5,32.52-25.92,45.6
			C44.73,52.87,45.96,53.21,45.96,53.21z"/>
		<path class="st9" d="M71.76,12.68c-0.18,0.08-0.4,0.18-0.65,0.29c-0.25,0.12-0.53,0.28-0.85,0.45c-0.16,0.09-0.33,0.18-0.5,0.27
			c-0.17,0.11-0.35,0.22-0.53,0.34c-0.37,0.23-0.77,0.48-1.18,0.79c-0.2,0.15-0.42,0.3-0.63,0.46c-0.22,0.16-0.42,0.34-0.65,0.52
			c-0.22,0.18-0.44,0.37-0.67,0.55c-0.22,0.2-0.44,0.41-0.68,0.61c-0.92,0.84-1.85,1.82-2.79,2.89c-0.93,1.09-1.86,2.26-2.76,3.53
			c-0.9,1.27-1.78,2.62-2.61,4.02c-0.06,0.09-0.11,0.19-0.17,0.29c-0.03,0.02-0.05,0.04-0.05,0.04l0.01,0.02
			c-0.77,1.29-1.5,2.63-2.19,3.99c-0.76,1.47-1.46,2.98-2.14,4.47c-0.66,1.5-1.29,2.98-1.85,4.43c-0.57,1.45-1.08,2.86-1.55,4.21
			c-0.46,1.35-0.88,2.63-1.24,3.83c-0.37,1.19-0.68,2.29-0.94,3.27c-0.26,0.98-0.48,1.83-0.65,2.54c-0.17,0.71-0.3,1.27-0.38,1.64
			c-0.08,0.38-0.13,0.58-0.13,0.58l0.68,0.15c0,0,0.04-0.2,0.12-0.58c0.08-0.38,0.19-0.94,0.36-1.64c0.15-0.7,0.36-1.56,0.61-2.53
			c0.25-0.98,0.54-2.07,0.89-3.26c0.34-1.19,0.74-2.47,1.18-3.82c0.23-0.68,0.46-1.38,0.71-2.09c0.28-0.2,0.91-0.64,1.76-1.21
			c0.58-0.39,1.27-0.83,2.02-1.29c0.75-0.45,1.55-0.93,2.38-1.37c0.41-0.23,0.82-0.44,1.23-0.65c0.41-0.21,0.82-0.39,1.22-0.58
			c0.39-0.19,0.79-0.33,1.16-0.49c0.37-0.16,0.73-0.26,1.06-0.39c0.33-0.13,0.64-0.18,0.92-0.26c0.14-0.04,0.27-0.07,0.39-0.1
			c0.12-0.02,0.23-0.04,0.33-0.06c0.4-0.07,0.63-0.11,0.63-0.11s-0.23,0.03-0.64,0.1c-0.1,0.01-0.21,0.03-0.34,0.05
			c-0.12,0.03-0.25,0.06-0.39,0.09c-0.28,0.08-0.6,0.13-0.93,0.25c-0.33,0.11-0.7,0.21-1.08,0.36c-0.37,0.15-0.78,0.28-1.18,0.47
			c-0.4,0.18-0.82,0.35-1.24,0.56c-0.42,0.2-0.84,0.4-1.25,0.62c-0.84,0.42-1.65,0.88-2.42,1.32c-0.76,0.44-1.46,0.87-2.05,1.24
			c-0.58,0.37-1.06,0.68-1.4,0.91c0.19-0.52,0.38-1.04,0.58-1.57c0.54-1.45,1.15-2.94,1.78-4.43c0.65-1.49,1.33-3,2.07-4.48
			c0.66-1.32,1.35-2.63,2.08-3.9l0.01,0.01c0,0,0.73-0.59,1.87-1.42c0.57-0.42,1.24-0.89,1.97-1.39c0.73-0.5,1.52-1.01,2.32-1.5
			c0.4-0.25,0.81-0.48,1.21-0.72c0.4-0.24,0.8-0.44,1.19-0.66c0.39-0.21,0.77-0.39,1.14-0.57c0.36-0.17,0.72-0.32,1.04-0.47
			c0.32-0.14,0.63-0.24,0.9-0.35c0.27-0.11,0.51-0.18,0.7-0.23c0.4-0.12,0.62-0.18,0.62-0.18s-0.23,0.06-0.63,0.17
			c-0.2,0.05-0.44,0.12-0.71,0.22c-0.27,0.1-0.58,0.19-0.91,0.33c-0.33,0.14-0.68,0.28-1.05,0.45c-0.37,0.17-0.76,0.35-1.15,0.55
			c-0.39,0.21-0.81,0.4-1.21,0.63c-0.4,0.23-0.82,0.45-1.23,0.69c-0.82,0.47-1.62,0.97-2.36,1.46c-0.75,0.48-1.43,0.94-2.01,1.35
			c-0.52,0.36-0.96,0.68-1.28,0.92c0.76-1.31,1.56-2.56,2.38-3.75c0.88-1.28,1.79-2.47,2.7-3.56c0.92-1.08,1.83-2.07,2.74-2.91
			c0.23-0.21,0.45-0.42,0.66-0.62c0.23-0.19,0.45-0.38,0.66-0.56c0.22-0.18,0.42-0.36,0.64-0.53c0.21-0.16,0.42-0.31,0.62-0.47
			c0.4-0.31,0.8-0.56,1.16-0.8c0.18-0.12,0.36-0.23,0.53-0.34c0.17-0.1,0.34-0.19,0.5-0.28c0.32-0.17,0.59-0.34,0.85-0.46
			C71.37,12.87,71.59,12.77,71.76,12.68c0.36-0.16,0.54-0.24,0.54-0.24S72.12,12.52,71.76,12.68z"/>
		<path class="st10" d="M52.9,25.34c2.14-4.84,11.88-20.87,22.12-15.02C66.57,9.88,60.82,13.43,52.9,25.34z"/>
	</g>
	<g>
		<path class="st7" d="M43.09,64.79c3.42,36.22,25.27,61.8,36.97,55.75c11.71-6.06-1.82-44.79-32.41-58.92
			C42.78,63.6,43.09,64.79,43.09,64.79z"/>
		<path class="st8" d="M43.09,64.79c3.42,36.22,25.27,61.8,36.97,55.75c11.71-6.06-7.88-43.66-35.33-58.23
			C42.66,63.35,43.09,64.79,43.09,64.79z"/>
		<path class="st9" d="M76.72,116.15c-0.21-0.1-0.48-0.22-0.78-0.37c-0.31-0.15-0.64-0.36-1.03-0.57c-0.19-0.11-0.39-0.23-0.61-0.35
			c-0.2-0.14-0.42-0.28-0.64-0.42c-0.45-0.29-0.93-0.61-1.42-0.99c-0.25-0.19-0.51-0.38-0.77-0.58c-0.26-0.2-0.52-0.43-0.79-0.65
			c-0.27-0.22-0.54-0.46-0.82-0.69c-0.27-0.25-0.55-0.51-0.83-0.77c-1.13-1.04-2.28-2.27-3.45-3.6c-1.15-1.35-2.32-2.81-3.45-4.38
			c-1.13-1.57-2.25-3.24-3.31-4.97c-0.07-0.12-0.14-0.24-0.22-0.36c-0.04-0.03-0.06-0.04-0.06-0.04l0.02-0.03
			c-0.98-1.6-1.92-3.25-2.82-4.92c-0.99-1.82-1.9-3.67-2.79-5.51c-0.86-1.84-1.69-3.67-2.44-5.45c-0.76-1.78-1.45-3.52-2.08-5.18
			c-0.62-1.66-1.2-3.23-1.69-4.7c-0.5-1.46-0.94-2.81-1.31-4.01c-0.37-1.2-0.68-2.25-0.92-3.12c-0.25-0.87-0.43-1.55-0.55-2.02
			c-0.12-0.47-0.19-0.71-0.19-0.71l0.79-0.16c0,0,0.06,0.25,0.18,0.71c0.11,0.47,0.29,1.15,0.52,2.01c0.23,0.86,0.52,1.91,0.88,3.1
			c0.35,1.2,0.77,2.54,1.25,4c0.47,1.46,1.02,3.04,1.63,4.7c0.31,0.84,0.63,1.7,0.97,2.57c0.34,0.25,1.1,0.81,2.13,1.52
			c0.71,0.49,1.54,1.05,2.44,1.62c0.9,0.57,1.87,1.18,2.87,1.74c0.49,0.29,0.99,0.56,1.49,0.82c0.49,0.27,0.99,0.5,1.46,0.74
			c0.47,0.24,0.95,0.43,1.39,0.63c0.44,0.2,0.88,0.34,1.27,0.5c0.39,0.16,0.77,0.24,1.09,0.35c0.16,0.05,0.32,0.09,0.46,0.13
			c0.14,0.03,0.27,0.06,0.39,0.08c0.48,0.1,0.75,0.15,0.75,0.15s-0.27-0.05-0.75-0.13c-0.12-0.02-0.25-0.04-0.4-0.07
			c-0.14-0.04-0.3-0.08-0.46-0.13c-0.33-0.1-0.71-0.17-1.1-0.33c-0.4-0.15-0.83-0.28-1.28-0.47c-0.45-0.19-0.93-0.37-1.41-0.6
			c-0.48-0.23-0.98-0.45-1.48-0.71c-0.5-0.25-1.01-0.51-1.51-0.79c-1.01-0.54-1.99-1.12-2.91-1.67c-0.92-0.56-1.76-1.1-2.48-1.57
			c-0.7-0.46-1.29-0.86-1.7-1.15c0.25,0.64,0.51,1.28,0.77,1.93c0.72,1.78,1.53,3.61,2.36,5.45c0.86,1.84,1.75,3.69,2.71,5.52
			c0.86,1.63,1.75,3.25,2.68,4.81l0.01-0.01c0,0,0.89,0.74,2.28,1.78c0.69,0.52,1.51,1.12,2.4,1.75c0.88,0.62,1.84,1.28,2.81,1.9
			c0.48,0.32,0.98,0.61,1.46,0.91c0.48,0.3,0.97,0.56,1.44,0.84c0.47,0.27,0.93,0.5,1.37,0.73c0.44,0.22,0.86,0.41,1.25,0.6
			c0.39,0.18,0.75,0.32,1.07,0.45c0.32,0.14,0.6,0.23,0.84,0.3c0.47,0.15,0.74,0.24,0.74,0.24s-0.27-0.08-0.74-0.22
			c-0.24-0.07-0.52-0.15-0.85-0.28c-0.32-0.13-0.69-0.25-1.08-0.42c-0.39-0.18-0.82-0.36-1.26-0.57c-0.44-0.22-0.91-0.44-1.38-0.7
			c-0.47-0.26-0.97-0.52-1.46-0.8c-0.49-0.29-0.99-0.57-1.48-0.88c-0.99-0.6-1.96-1.23-2.86-1.84c-0.9-0.6-1.73-1.19-2.44-1.7
			c-0.63-0.46-1.16-0.85-1.56-1.15c0.97,1.62,1.99,3.16,3.02,4.64c1.11,1.58,2.26,3.05,3.39,4.41c1.15,1.34,2.28,2.57,3.39,3.63
			c0.28,0.26,0.55,0.52,0.82,0.78c0.28,0.24,0.55,0.47,0.81,0.7c0.27,0.22,0.52,0.46,0.78,0.66c0.26,0.2,0.52,0.4,0.76,0.58
			c0.48,0.39,0.97,0.71,1.41,1.01c0.22,0.15,0.43,0.29,0.64,0.43c0.21,0.12,0.41,0.24,0.6,0.35c0.38,0.22,0.72,0.43,1.02,0.59
			C76.25,115.91,76.51,116.04,76.72,116.15c0.43,0.2,0.65,0.31,0.65,0.31S77.14,116.35,76.72,116.15z"/>
		<path class="st10" d="M53.71,99.62c0,0,9.31,18.99,21.05,21.09C66.49,115.8,59.68,109.65,53.71,99.62z"/>
	</g>
	<g>
		<path class="st11" d="M45.92,52.02c6.2-3.02,15.66-4.79,22.02,2.05c5.75,6.18,0.14,15.79-8.75,16.75
			c-7.76,0.84-13.78-2.32-17.4-7.23C38.18,58.68,45.92,52.02,45.92,52.02z"/>
		<path class="st12" d="M45.92,52.02c6.2-3.02,12.86-4.92,18.66,2.39c4.2,5.3,1.42,12.63-7.38,14.16
			c-6.41,1.11-13.15-1.88-16.77-6.79C36.82,56.87,45.92,52.02,45.92,52.02z"/>
	</g>
	<g>
		<path class="st2" d="M52.26,54.08c-2.03-5.69-2.82-16.25-1.23-15.74c1.58,0.52,2.72,12.7,2.78,14.24
			C53.86,54.14,52.82,55.65,52.26,54.08z"/>
		<path class="st2" d="M50.41,38.97c1.29-4.33,4.72-11.38,6.54-13.95c0.68-0.96,1.5-0.9,0.6,0.9c-1.27,2.52-4.49,9.85-5.78,13.55
			C50.94,40.4,50.41,38.97,50.41,38.97z"/>
		<path class="st2" d="M57.94,24.84c0.82-0.92-3.74-9.92-3.17-8.37c1.25,3.4,2.58,8.12,2.58,8.12L57.94,24.84z"/>
	</g>
	<g>
		<path class="st2" d="M58.67,53.41c-0.41-6.03,1.72-16.4,3.1-15.47c1.38,0.93-0.84,12.96-1.21,14.46
			C60.2,53.91,58.79,55.08,58.67,53.41z"/>
		<path class="st2" d="M61.01,38.38c2.42-3.82,7.64-9.66,10.09-11.64c0.92-0.74,1.69-0.45,0.34,1.03c-1.9,2.08-7,8.26-9.25,11.46
			C61.14,39.9,61.01,38.38,61.01,38.38z"/>
		<path class="st2" d="M72.11,26.83c1.04-0.66-0.9-10.57-0.77-8.92c0.28,3.61,0.27,8.51,0.27,8.51L72.11,26.83z"/>
	</g>
	<g>
		<path class="st2" d="M65.56,54.46c2.41-6.15,9.22-15.68,10.09-14.24c0.87,1.44-6.79,12.57-7.84,13.93
			C66.76,55.52,64.89,56.17,65.56,54.46z"/>
		<path class="st2" d="M75.37,39.97c4.51-2.08,12.73-4.45,16.09-4.88c1.26-0.16,1.73,0.51-0.37,1.1
			c-2.96,0.81-11.28,3.55-15.26,5.17C74.5,41.39,75.37,39.97,75.37,39.97z"/>
		<path class="st2" d="M92.25,35.72c1.31-0.03,6.02-9.88,5.07-8.35c-2.08,3.36-5.24,7.71-5.24,7.71L92.25,35.72z"/>
	</g>
	<g>
		<path class="st13" d="M28.77,66.52c8.24,2.05,16.7-3.45,18.89-12.27c2.19-8.82-2.72-17.62-10.97-19.67
			c-8.24-2.04-16.7,3.45-18.89,12.27C15.61,55.67,20.52,64.47,28.77,66.52z"/>
		<path class="st14" d="M47.77,48.68c-0.03-0.33-0.06-0.67-0.11-1c-0.41-9.24,13.56-23.42,16.9-35.59
			c-8.08,14.07-15.33,23.35-22.07,25.84c-1.66-1.44-3.64-2.51-5.88-3.07c-8.25-2.04-16.7,3.45-18.89,12.27
			c-2.19,8.82,2.25,16.1,11,18.55c6.99,1.96,16.27-3.67,18.42-11.03c0.5-1.71,0.71-3.43,0.67-5.1c0.1,0.13,0.19,0.26,0.29,0.4
			C47.95,49.54,47.84,49.12,47.77,48.68z"/>
		<path class="st13" d="M25.08,61.01c3.45,2.05,7.38,1.78,8.79-0.59c1.4-2.37-0.26-5.94-3.7-7.99c-3.45-2.05-7.38-1.78-8.79,0.59
			C19.97,55.39,21.62,58.97,25.08,61.01z"/>
		<g>
			<g>
				<path class="st3" d="M25.09,60.18c3.3,1.96,7.07,1.7,8.42-0.57c1.34-2.27-0.24-5.7-3.55-7.66c-3.3-1.96-7.07-1.7-8.42,0.57
					C20.19,54.79,21.78,58.22,25.09,60.18z"/>
			</g>
			<g>
				<path class="st13" d="M32.45,37.46c4.04,0.36,6.88,3.22,6.86,5.67c-0.02,2.78-3.05,4.87-7.09,4.49
					c-3.93-0.37-7.46-2.93-7.21-5.7C25.26,39.16,28.42,37.1,32.45,37.46z"/>
				<path class="st3" d="M32.39,37.53c3.83,0.34,6.74,2.75,6.5,5.38c-0.24,2.63-3.53,4.48-7.35,4.14c-3.83-0.34-6.74-2.75-6.5-5.38
					C25.27,39.04,28.56,37.19,32.39,37.53z"/>
			</g>
			<path class="st15" d="M22.23,55.69c0,0,0.16-0.05,0.44-0.11c0.28-0.06,0.69-0.15,1.18-0.22c0.25-0.04,0.51-0.07,0.8-0.1
				c0.29-0.03,0.58-0.07,0.9-0.09c0.31-0.01,0.63-0.02,0.96-0.03c0.33-0.01,0.66-0.02,0.99,0c0.33,0.02,0.67,0.04,0.99,0.06
				c0.33,0.01,0.65,0.07,0.96,0.11c0.31,0.04,0.61,0.09,0.89,0.14c0.14,0.02,0.28,0.04,0.41,0.07c0.13,0.03,0.26,0.07,0.38,0.1
				c0.48,0.13,0.88,0.25,1.16,0.33c0.28,0.09,0.44,0.14,0.44,0.14s-0.17-0.02-0.45-0.07c-0.29-0.05-0.7-0.1-1.18-0.19
				c-0.12-0.02-0.25-0.04-0.38-0.07c-0.13-0.01-0.27-0.02-0.41-0.04c-0.28-0.03-0.58-0.05-0.88-0.08c-0.31-0.03-0.62-0.07-0.95-0.08
				c-0.32-0.01-0.65-0.03-0.98-0.04c-0.33-0.03-0.66-0.03-0.98-0.02c-0.32,0-0.64,0-0.95,0c-0.31,0.01-0.61,0.02-0.89,0.03
				c-0.28,0.01-0.55,0.01-0.8,0.04c-0.25,0.02-0.47,0.03-0.67,0.04c-0.2,0.01-0.38,0.03-0.52,0.05
				C22.39,55.67,22.23,55.69,22.23,55.69z"/>
			<path class="st15" d="M26.32,51.69c0,0,0.24,0.49,0.53,1.26c0.08,0.19,0.15,0.4,0.22,0.62c0.07,0.22,0.16,0.46,0.23,0.7
				c0.14,0.49,0.3,1.02,0.41,1.55c0.06,0.27,0.12,0.54,0.17,0.8c0.06,0.26,0.1,0.52,0.14,0.78c0.04,0.25,0.07,0.5,0.11,0.73
				c0.04,0.23,0.06,0.45,0.07,0.66c0.03,0.41,0.04,0.75,0.06,0.99c0.01,0.24,0.01,0.38,0.01,0.38s-0.03-0.13-0.08-0.37
				c-0.05-0.23-0.13-0.57-0.2-0.97c-0.07-0.4-0.19-0.86-0.29-1.36c-0.1-0.5-0.23-1.02-0.35-1.55c-0.11-0.53-0.26-1.05-0.37-1.55
				c-0.12-0.49-0.24-0.95-0.34-1.35C26.45,52.22,26.32,51.69,26.32,51.69z"/>
			<path class="st15" d="M26.94,42.89c0,0,0.15-0.08,0.42-0.18c0.27-0.11,0.66-0.26,1.13-0.41c0.24-0.08,0.5-0.15,0.77-0.22
				c0.28-0.07,0.57-0.16,0.87-0.23c0.31-0.06,0.62-0.12,0.94-0.18c0.32-0.06,0.65-0.12,0.98-0.15c0.33-0.03,0.66-0.07,0.99-0.1
				c0.33-0.05,0.65-0.04,0.96-0.04c0.31-0.01,0.61,0,0.9,0c0.14,0,0.28,0,0.42,0c0.13,0.01,0.26,0.03,0.39,0.04
				c0.5,0.05,0.91,0.11,1.2,0.14c0.29,0.04,0.45,0.06,0.45,0.06s-0.17,0-0.46,0.01c-0.29,0-0.7,0.01-1.2,0c-0.12,0-0.25,0-0.38-0.01
				c-0.13,0.01-0.27,0.02-0.41,0.03c-0.28,0.02-0.58,0.04-0.89,0.06c-0.31,0.01-0.63,0.03-0.95,0.07c-0.32,0.04-0.65,0.07-0.97,0.11
				c-0.33,0.03-0.65,0.08-0.97,0.14c-0.32,0.05-0.63,0.1-0.94,0.15c-0.3,0.06-0.6,0.12-0.87,0.17c-0.28,0.06-0.54,0.1-0.78,0.17
				c-0.24,0.06-0.46,0.11-0.66,0.15c-0.2,0.04-0.36,0.09-0.51,0.13C27.1,42.85,26.94,42.89,26.94,42.89z"/>
			<path class="st15" d="M30.34,38.3c0,0,0.32,0.45,0.72,1.16c0.1,0.18,0.21,0.37,0.32,0.58c0.11,0.21,0.23,0.42,0.34,0.66
				c0.21,0.46,0.45,0.96,0.65,1.46c0.1,0.25,0.2,0.51,0.3,0.76c0.1,0.25,0.18,0.5,0.26,0.75c0.08,0.24,0.15,0.48,0.22,0.7
				c0.07,0.22,0.13,0.44,0.18,0.64c0.1,0.4,0.16,0.74,0.22,0.97c0.05,0.23,0.07,0.37,0.07,0.37s-0.06-0.13-0.14-0.35
				c-0.08-0.22-0.21-0.54-0.35-0.92c-0.13-0.38-0.33-0.82-0.5-1.3c-0.17-0.48-0.39-0.97-0.59-1.48c-0.19-0.51-0.42-1-0.61-1.47
				c-0.2-0.47-0.39-0.91-0.54-1.28C30.55,38.8,30.34,38.3,30.34,38.3z"/>
		</g>
		<g>
			<g>
				<g>
					<path class="st13" d="M18.52,51.75c0,0-1.22,0.47-2.91,1.42c-0.84,0.48-1.81,1.07-2.8,1.78c-0.49,0.35-0.99,0.73-1.48,1.14
						c-0.49,0.41-0.97,0.84-1.44,1.29c-0.46,0.46-0.91,0.92-1.32,1.41c-0.21,0.24-0.41,0.48-0.6,0.73c-0.2,0.24-0.37,0.49-0.55,0.74
						c-0.35,0.5-0.66,1-0.92,1.49c-0.14,0.24-0.26,0.49-0.37,0.72C6,62.7,5.9,62.93,5.81,63.15c-0.2,0.44-0.33,0.87-0.46,1.24
						c-0.11,0.38-0.2,0.71-0.27,0.98c-0.11,0.56-0.18,0.87-0.18,0.87c-0.01,0.04,0.02,0.08,0.06,0.09c0.04,0.01,0.08-0.02,0.08-0.06
						l0,0c0,0,0.07-0.31,0.19-0.86c0.07-0.27,0.17-0.6,0.28-0.97c0.13-0.36,0.27-0.78,0.47-1.22c0.09-0.22,0.19-0.45,0.32-0.68
						c0.12-0.23,0.23-0.47,0.37-0.71c0.27-0.48,0.58-0.97,0.93-1.46c0.17-0.25,0.35-0.49,0.55-0.73c0.19-0.24,0.39-0.48,0.6-0.72
						c0.41-0.48,0.86-0.93,1.32-1.38c0.47-0.44,0.95-0.86,1.44-1.25c0.49-0.4,0.99-0.77,1.48-1.11c0.98-0.69,1.95-1.27,2.79-1.73
						c0.84-0.46,1.57-0.8,2.08-1.03c0.51-0.23,0.81-0.34,0.81-0.34c0.1-0.04,0.15-0.14,0.11-0.24
						C18.73,51.76,18.62,51.71,18.52,51.75L18.52,51.75z"/>
				</g>
				<g>
					<path class="st13" d="M12.63,52.7c0.39,0.22,0.79,0.42,1.2,0.6c0.4,0.18,0.82,0.35,1.23,0.52l-0.12-0.19
						c-0.06,0.53-0.09,1.05-0.12,1.58c-0.01,0.27-0.02,0.53-0.02,0.79c0.01,0.27,0,0.53,0.02,0.8c0.07-0.26,0.11-0.52,0.17-0.78
						c0.05-0.26,0.09-0.52,0.13-0.78c0.07-0.52,0.13-1.05,0.18-1.57l0.01-0.14l-0.13-0.05c-0.42-0.15-0.84-0.3-1.26-0.43
						C13.5,52.91,13.07,52.8,12.63,52.7z"/>
				</g>
				<g>
					<path class="st13" d="M10.1,54.82c0.35,0.18,0.72,0.33,1.09,0.46c0.37,0.13,0.74,0.25,1.12,0.35l-0.13-0.19
						c-0.03,0.36-0.06,0.73-0.06,1.1c-0.01,0.37,0,0.74,0.04,1.11c0.11-0.36,0.19-0.72,0.25-1.08c0.07-0.36,0.11-0.73,0.15-1.09
						l0.02-0.15l-0.15-0.04c-0.38-0.11-0.76-0.2-1.14-0.28C10.89,54.92,10.5,54.85,10.1,54.82z"/>
				</g>
				<g>
					<path class="st13" d="M7.78,57.26c0.58,0.31,1.2,0.52,1.82,0.7l-0.13-0.13c0.08,0.32,0.17,0.64,0.29,0.96
						c0.11,0.32,0.23,0.63,0.39,0.93c-0.01-0.34-0.05-0.68-0.11-1.01c-0.06-0.33-0.13-0.66-0.21-0.98L9.8,57.64l-0.1-0.03
						C9.07,57.44,8.44,57.3,7.78,57.26z"/>
				</g>
				<g>
					<path class="st13" d="M6.06,59.71c0.27,0.12,0.55,0.2,0.83,0.27c0.28,0.07,0.56,0.12,0.84,0.16l-0.15-0.13
						c0.08,0.26,0.17,0.51,0.28,0.76c0.1,0.25,0.22,0.5,0.37,0.73c-0.01-0.28-0.05-0.55-0.1-0.82c-0.05-0.27-0.12-0.53-0.19-0.79
						L7.9,59.8l-0.12-0.02c-0.28-0.04-0.57-0.07-0.85-0.09C6.64,59.68,6.35,59.68,6.06,59.71z"/>
				</g>
				<g>
					<path class="st13" d="M5.09,62.04c0.47,0.09,0.93,0.09,1.39,0.06l-0.12-0.08c0.15,0.34,0.33,0.67,0.56,0.98
						c-0.06-0.38-0.18-0.73-0.32-1.08l-0.03-0.08l-0.09,0C6,61.87,5.54,61.91,5.09,62.04z"/>
				</g>
				<g>
					<path class="st13" d="M4.26,64.2c0.22,0.02,0.44,0.01,0.66,0c0.22-0.01,0.43-0.04,0.65-0.07L5.48,64.1
						c0.2,0.22,0.41,0.43,0.65,0.62c-0.15-0.26-0.33-0.51-0.52-0.74l-0.03-0.04l-0.05,0C5.32,63.97,5.11,64,4.89,64.04
						C4.68,64.08,4.47,64.13,4.26,64.2z"/>
				</g>
			</g>
		</g>
		<g>
			<g>
				<g>
					<path class="st13" d="M21.4,43.38c0,0-0.75-0.98-1.66-2.59c-0.45-0.8-0.95-1.76-1.4-2.82c-0.22-0.53-0.45-1.08-0.64-1.66
						c-0.2-0.57-0.38-1.16-0.54-1.75c-0.15-0.6-0.29-1.2-0.38-1.8c-0.05-0.3-0.09-0.6-0.12-0.89c-0.04-0.29-0.06-0.59-0.08-0.87
						c-0.04-0.58-0.04-1.13-0.02-1.66c0-0.26,0.03-0.52,0.05-0.77c0.02-0.25,0.05-0.49,0.09-0.71c0.06-0.46,0.16-0.87,0.24-1.24
						c0.1-0.36,0.19-0.68,0.26-0.93c0.18-0.51,0.29-0.8,0.29-0.8c0.01-0.03,0.05-0.05,0.09-0.04c0.03,0.01,0.05,0.05,0.04,0.09l0,0
						c0,0-0.1,0.29-0.27,0.79c-0.07,0.26-0.16,0.57-0.25,0.93c-0.07,0.36-0.17,0.77-0.22,1.22c-0.03,0.22-0.06,0.46-0.08,0.71
						c-0.02,0.24-0.04,0.5-0.04,0.76c-0.02,0.52-0.01,1.07,0.04,1.64c0.02,0.28,0.04,0.57,0.09,0.86c0.03,0.29,0.08,0.58,0.13,0.88
						c0.1,0.59,0.24,1.18,0.4,1.77c0.16,0.59,0.34,1.17,0.55,1.73c0.2,0.56,0.43,1.11,0.65,1.63c0.46,1.04,0.96,1.99,1.41,2.78
						c0.46,0.79,0.88,1.42,1.18,1.86c0.3,0.44,0.49,0.67,0.49,0.67c0.06,0.08,0.05,0.19-0.03,0.25
						C21.57,43.47,21.46,43.46,21.4,43.38L21.4,43.38z"/>
				</g>
				<g>
					<path class="st13" d="M17.08,39.7c0.43,0.01,0.85,0.05,1.27,0.1c0.42,0.05,0.84,0.11,1.25,0.19l-0.19,0.1
						c0.21-0.45,0.44-0.9,0.68-1.34c0.12-0.22,0.25-0.44,0.38-0.65c0.14-0.21,0.26-0.43,0.41-0.63c-0.07,0.24-0.16,0.47-0.25,0.71
						c-0.09,0.24-0.18,0.47-0.28,0.7c-0.2,0.46-0.41,0.92-0.63,1.36l-0.06,0.12l-0.13-0.03c-0.41-0.08-0.83-0.17-1.24-0.27
						C17.89,39.95,17.49,39.84,17.08,39.7z"/>
				</g>
				<g>
					<path class="st13" d="M16.08,36.73c0.38,0.03,0.75,0.09,1.11,0.17c0.37,0.07,0.73,0.17,1.08,0.26l-0.21,0.09
						c0.15-0.31,0.31-0.62,0.49-0.92c0.17-0.3,0.36-0.6,0.58-0.88c-0.09,0.34-0.21,0.67-0.33,1c-0.13,0.33-0.27,0.64-0.42,0.96
						l-0.06,0.13l-0.14-0.04c-0.36-0.1-0.71-0.21-1.06-0.34C16.76,37.04,16.42,36.9,16.08,36.73z"/>
				</g>
				<g>
					<path class="st13" d="M15.4,33.6c0.63,0.04,1.23,0.17,1.83,0.33l-0.17,0.04c0.23-0.22,0.46-0.44,0.71-0.64
						c0.24-0.2,0.5-0.4,0.78-0.57c-0.17,0.28-0.37,0.53-0.58,0.77c-0.21,0.24-0.43,0.47-0.66,0.69l-0.07,0.07l-0.1-0.03
						C16.54,34.09,15.95,33.9,15.4,33.6z"/>
				</g>
				<g>
					<path class="st13" d="M15.21,30.76c0.28,0.04,0.55,0.11,0.81,0.19c0.26,0.08,0.51,0.18,0.76,0.28l-0.19,0.03
						c0.19-0.17,0.39-0.33,0.6-0.48c0.21-0.15,0.43-0.29,0.66-0.41c-0.14,0.22-0.31,0.42-0.48,0.61c-0.17,0.19-0.36,0.37-0.55,0.54
						l-0.08,0.07l-0.11-0.04c-0.25-0.1-0.5-0.22-0.74-0.35C15.67,31.08,15.43,30.94,15.21,30.76z"/>
				</g>
				<g>
					<path class="st13" d="M15.57,28.39c0.42,0.16,0.8,0.39,1.16,0.64l-0.14,0c0.29-0.2,0.59-0.38,0.93-0.52
						c-0.24,0.28-0.51,0.5-0.79,0.72l-0.07,0.05l-0.07-0.05C16.23,28.99,15.88,28.72,15.57,28.39z"/>
				</g>
				<g>
					<path class="st13" d="M15.96,26.24c0.19,0.09,0.36,0.21,0.53,0.32c0.17,0.12,0.33,0.24,0.49,0.37l-0.08-0.01
						c0.27-0.08,0.55-0.15,0.84-0.18c-0.25,0.14-0.52,0.25-0.79,0.35l-0.04,0.01l-0.04-0.03c-0.17-0.12-0.33-0.25-0.48-0.39
						C16.25,26.54,16.1,26.4,15.96,26.24z"/>
				</g>
			</g>
		</g>
		<g>
			<path class="st16" d="M41.69,54.24c-0.59,1.28-1.51,2.61-2.8,3.76c0.27,5.15,1.64,13,4.44,11.01
				C45.99,67.12,44.35,57.19,41.69,54.24z"/>
		</g>
		<g>
			<path class="st17" d="M41.69,54.24c-0.23,0.49-0.51,0.99-0.83,1.49c1.29,3.16,1.62,6.34,1.62,9.84
				c-0.33-3.51-0.98-6.37-2.34-8.88c-0.37,0.45-0.79,0.89-1.25,1.3c0.27,5.15,1.45,12.27,4.21,10.21
				C45.2,66.63,44.35,57.19,41.69,54.24z"/>
		</g>
		<g>
			<path class="st18" d="M40.78,56.03c0,0,0.06,0.15,0.15,0.41c0.1,0.27,0.23,0.65,0.37,1.11c0.15,0.46,0.28,1,0.44,1.58
				c0.06,0.29,0.13,0.6,0.2,0.9c0.07,0.31,0.14,0.62,0.18,0.94c0.05,0.32,0.1,0.63,0.15,0.94c0.06,0.31,0.08,0.62,0.1,0.92
				c0.02,0.3,0.05,0.59,0.07,0.86c0.03,0.27,0.04,0.53,0.04,0.77c0,0.96-0.01,1.6-0.01,1.6s-0.02-0.64-0.05-1.59
				c0-0.24-0.03-0.5-0.06-0.77c-0.03-0.27-0.07-0.56-0.1-0.85c-0.03-0.29-0.07-0.6-0.14-0.91c-0.06-0.31-0.12-0.62-0.18-0.93
				c-0.05-0.31-0.14-0.62-0.22-0.92c-0.08-0.3-0.15-0.6-0.23-0.89c-0.18-0.57-0.33-1.1-0.49-1.55c-0.16-0.45-0.29-0.82-0.4-1.07
				c-0.1-0.25-0.17-0.4-0.17-0.4L40.78,56.03z"/>
		</g>
		<path class="st13" d="M42.48,51.16c0,0,0.01,0.15,0.02,0.43c-0.01,0.13-0.02,0.3-0.03,0.49c-0.03,0.19-0.04,0.4-0.1,0.63
			c-0.05,0.23-0.11,0.47-0.19,0.73c-0.08,0.26-0.17,0.52-0.29,0.79c-0.12,0.27-0.24,0.54-0.39,0.81c-0.14,0.27-0.31,0.54-0.48,0.8
			c-0.18,0.25-0.36,0.51-0.55,0.75c-0.18,0.25-0.4,0.46-0.59,0.68c-0.2,0.22-0.42,0.4-0.61,0.58c-0.21,0.17-0.4,0.33-0.58,0.48
			c-0.19,0.14-0.37,0.26-0.52,0.36c-0.15,0.11-0.3,0.18-0.42,0.25c-0.23,0.14-0.37,0.21-0.37,0.21s0.12-0.1,0.33-0.27
			c0.1-0.08,0.24-0.18,0.38-0.31c0.14-0.13,0.3-0.26,0.47-0.41c0.16-0.16,0.34-0.33,0.53-0.52c0.17-0.2,0.37-0.39,0.55-0.61
			c0.37-0.43,0.74-0.91,1.08-1.41c0.16-0.25,0.33-0.51,0.47-0.77c0.15-0.26,0.29-0.52,0.41-0.77c0.12-0.26,0.24-0.51,0.33-0.75
			c0.1-0.24,0.18-0.47,0.24-0.69c0.07-0.22,0.12-0.42,0.17-0.6c0.04-0.18,0.07-0.34,0.1-0.47C42.46,51.31,42.48,51.16,42.48,51.16z"
			/>
	</g>
	<g>
		<path class="st2" d="M48.7,64.8c-2.44,6.08-3.72,17.48-1.98,16.99c1.74-0.5,3.47-13.63,3.6-15.31
			C50.44,64.8,49.38,63.12,48.7,64.8z"/>
		<path class="st2" d="M46.08,81.09c1.21,4.74,4.64,12.52,6.5,15.37c0.7,1.07,1.59,1.03,0.69-0.95c-1.27-2.78-4.45-10.85-5.7-14.91
			C46.72,79.56,46.08,81.09,46.08,81.09z"/>
		<path class="st2" d="M53.65,96.69c0.85,1.03-4.46,10.59-3.78,8.93C51.37,102,53,96.94,53,96.94L53.65,96.69z"/>
	</g>
	<g>
		<path class="st2" d="M55.63,65.79c-0.69,6.51,1.18,17.83,2.72,16.88c1.53-0.95-0.37-14.06-0.71-15.71
			C57.3,65.32,55.82,63.98,55.63,65.79z"/>
		<path class="st2" d="M57.54,82.17C60,86.4,65.42,92.95,67.98,95.19c0.96,0.84,1.81,0.56,0.41-1.1c-1.98-2.33-7.24-9.23-9.54-12.79
			C57.74,80.52,57.54,82.17,57.54,82.17z"/>
		<path class="st2" d="M69.07,95.12c1.1,0.76-1.41,11.4-1.2,9.63c0.45-3.9,0.64-9.21,0.64-9.21L69.07,95.12z"/>
	</g>
	<g>
		<path class="st2" d="M63.13,64.93c2.36,6.75,9.33,17.35,10.33,15.83c1-1.52-6.84-13.9-7.91-15.41
			C64.47,63.84,62.47,63.06,63.13,64.93z"/>
		<path class="st2" d="M73.15,81.03c4.8,2.44,13.6,5.34,17.22,5.95c1.35,0.22,1.9-0.49-0.36-1.2c-3.17-1.01-12.06-4.31-16.31-6.23
			C72.27,79.46,73.15,81.03,73.15,81.03z"/>
		<path class="st2" d="M91.25,86.33c1.42,0.08,6.11,10.95,5.15,9.25c-2.11-3.73-5.36-8.57-5.36-8.57L91.25,86.33z"/>
	</g>
</g>
</svg>
